<svg xmlns="http://www.w3.org/2000/svg" fill="none" viewBox="0 0 130 65"><clipPath id="a"><path d="M0 0h130v65H0z"/></clipPath><g clip-path="url(#a)"><path fill="#2f3236" d="M53.33 50.866a14.19 14.19 0 0 0-.063-.575c-.02-.15-.049-.299-.08-.448a8.33 8.33 0 0 0-.156-1.09c-.04-.198-.084-.395-.125-.591l-.049-.243a12.33 12.33 0 0 0-.138-.617 3.73 3.73 0 0 0-.194-.548 6.77 6.77 0 0 0-.335-.95c-.092-.207-.194-.41-.294-.611-.087-.176-.173-.35-.272-.521-.062-.107-.131-.21-.192-.317-.094-.163-.177-.332-.282-.487-.112-.164-.247-.311-.372-.464-.096-.118-.191-.235-.291-.349l.009.011c-.089-.101-.172-.207-.257-.311-.15-.183-.3-.367-.468-.531-.174-.17-.351-.333-.529-.498-.168-.154-.327-.317-.501-.464a5.128 5.128 0 0 0-.285-.221c-.057-.041-.117-.08-.171-.127-.028-.026-.056-.054-.085-.079a1.03 1.03 0 0 0-.149-.101c-.176-.102-.356-.2-.526-.314l.021.014a4.863 4.863 0 0 0-.44-.273c-.08-.042-.16-.087-.243-.125l-.225-.105c-.053-.028-.103-.06-.153-.091l-.16-.103a.688.688 0 0 0-.117-.065c-.038-.016-.076-.027-.115-.042a4.912 4.912 0 0 1-.456-.187c-.104-.049-.205-.102-.312-.141a2.331 2.331 0 0 0-.343-.095c-.202-.044-.404-.085-.603-.141a5.634 5.634 0 0 0-.55-.127c-.111-.02-.22-.04-.333-.056-.112-.018-.224-.03-.335-.05-.053-.012-.104-.028-.157-.039a1.266 1.266 0 0 0-.171-.02 39.44 39.44 0 0 0-.563-.034c-.208-.014-.415-.03-.624-.046-.19-.015-.382-.012-.575-.012-.147 0-.296-.003-.444.004-.142.005-.283.025-.425.04-.201.02-.402.05-.603.064-.048.003-.094.003-.141.004-.175-.006-.349-.016-.523-.006a3.263 3.263 0 0 0-.49.083 1.661 1.661 0 0 0-.339.073c-.062.012-.125.023-.187.033-.104.016-.21.032-.311.056-.202.046-.4.11-.599.163-.203.056-.41.097-.61.162a2.98 2.98 0 0 0-.058.02l-.028.007c-.162.04-.324.09-.481.15a2.61 2.61 0 0 0-.276.128c-.031.017-.066.036-.097.058l-.223.091c-.095.04-.191.077-.288.116-.1.041-.196.091-.291.142-.37.2-.72.437-1.061.682-.17.12-.338.241-.507.363-.17.122-.325.263-.476.41l-.134.136a3.958 3.958 0 0 0-.19.14c-.13.102-.261.205-.381.321-.113.11-.222.223-.33.338-.138.146-.28.291-.407.448a7.188 7.188 0 0 0-.381.514l-.158.235c-.036.043-.072.085-.106.13-.07.087-.14.174-.204.265a4.565 4.565 0 0 0-.28.434c-.016.03-.033.058-.047.087l-.054.107c-.01.017-.017.035-.027.053a3.555 3.555 0 0 0-.198.313c-.044.078-.086.159-.127.24-.038.074-.075.15-.114.224l-.09.184-.048.105-.048.11-.07.17c-.009.025-.02.049-.028.074a2.713 2.713 0 0 0-.106.265l-.008.023-.092.252-.03.088-.01.026-.142.385-.073.196c-.023.063-.047.127-.068.191-.023.066-.045.13-.063.198l-.03.11a4.543 4.543 0 0 0-.099.504 8.659 8.659 0 0 0-.053.418c-.007.07-.015.139-.019.21l-.005.075-.01.11c0 .023-.003.047-.005.07-.025.14-.05.283-.07.425-.064.42-.104.841-.117 1.265-.006.219-.012.437-.014.656 0 .1-.004.2-.003.3.001.104 0 .208.012.312.012.11.028.219.046.33.013.076.03.153.05.23a2.797 2.797 0 0 0 .042.471l.033.182v-.004c.013.06.027.123.043.183.015.061.034.123.051.184.037.129.072.258.105.387.035.13.068.261.102.393.03.116.065.23.097.344l.05.166.028.132c.016.06.03.119.048.177.016.058.033.116.051.173.019.055.036.112.057.166l.025.067.01.028.036.087c.02.05.044.099.067.146l.025.045a.289.289 0 0 0 .027.04l.013.03.024.07v-.004l.018.056v-.002l.06.162c.023.057.048.11.073.165a5.26 5.26 0 0 0 .258.578l.013.022c.017.037.036.072.058.108.055.095.113.19.174.282l.005.01a2.584 2.584 0 0 0 .1.234c.013.029.028.058.044.087l.044.084a3.794 3.794 0 0 0 .402.59l.068.083.004.006.025.036c.01.013.017.026.029.037a.032.032 0 0 0 .012.005l.004.007a3.53 3.53 0 0 0 .162.222l.071.086.071.082a3.368 3.368 0 0 0 .104.127l.064.076.087.099c.04.047.083.093.125.138.047.052.095.104.144.155a15.572 15.572 0 0 0 .377.377l.038.047c.024.028.046.058.071.086l.08.093c.088.105.181.205.283.296a1.66 1.66 0 0 0 .192.146l.017.019a6.83 6.83 0 0 0 .445.419l.075.063.05.041c.036.033.072.066.11.096h.002c.075.071.149.143.225.211.308.273.652.505 1.004.717.177.107.357.21.534.318.18.11.36.22.55.311.183.09.367.178.55.267.184.088.373.165.561.244.182.076.364.155.554.212.137.04.277.074.416.104l.014.005a4.44 4.44 0 0 0 .61.173h-.01c.118.024.237.046.356.066l.407.067.145.032c.057.012.115.022.171.03.069.01.136.021.203.028.065.006.13.013.196.017l.018.004c.024.005.047.012.073.015.07.01.138.022.208.028.04.004.08.01.121.012l.11.007c.064.004.129.006.192.008h.078a5.522 5.522 0 0 0 .7.045h.053c.074 0 .146-.006.22-.01.102-.006.202-.017.302-.03.026 0 .051 0 .078-.002h-.002l.144-.007c.056-.004.11-.008.166-.017a2.49 2.49 0 0 0 .169-.036l.06.003a.823.823 0 0 0 .14-.01c.077-.013.152-.03.229-.047l.18-.016c.048-.005.094-.009.14-.017.046-.006.092-.017.138-.028.082-.018.165-.035.247-.055a2.212 2.212 0 0 0 .174-.05l.026-.01a.31.31 0 0 0 .035-.004c.054-.011.108-.022.16-.039l.073-.023c.087-.015.175-.03.261-.047.13-.026.256-.059.38-.098.137-.044.267-.1.398-.16.025-.004.05-.01.074-.015.085-.018.17-.047.254-.07.042-.011.083-.023.124-.039l.124-.049c.062-.022.123-.05.185-.072l.13-.046a2.395 2.395 0 0 0 .311-.145c.053-.03.103-.061.156-.089h.003l.002-.002h-.003c.07-.035.143-.065.217-.095l.137-.061c.045-.02.09-.04.136-.058.08-.034.162-.066.24-.105.064-.033.126-.07.19-.103.09-.048.177-.098.263-.15a2.422 2.422 0 0 0 .198-.14 1.21 1.21 0 0 1 .055-.036l.136-.096a3.45 3.45 0 0 1 .311-.206c.106-.063.211-.128.314-.196.052-.036.104-.072.153-.111.05-.04.096-.083.142-.128.09-.087.167-.185.246-.28l.051-.046-.007.006c.106-.093.213-.186.306-.29.095-.106.182-.22.273-.329.09-.108.184-.212.273-.32.012-.013.021-.03.032-.042l.075-.087a.023.023 0 0 0-.005.006l.186-.212-.003.003c.025-.03.051-.058.078-.086l.134-.144.127-.13c.042-.045.084-.091.123-.14.04-.049.075-.102.11-.153l.112-.156c.039-.051.08-.1.116-.151.074-.102.138-.211.207-.315l-.005.006c.069-.1.137-.2.21-.297.078-.102.158-.203.223-.313.064-.11.131-.218.192-.33.028-.05.057-.1.082-.152.028-.052.051-.106.078-.16l-.004.007c.015-.03.033-.061.05-.092.016-.027.033-.054.047-.082.028-.052.049-.109.075-.162l.062-.122c.033-.064.07-.124.095-.192.012-.03.021-.06.03-.09.034-.064.067-.127.096-.193.047-.105.09-.212.135-.318.048-.11.097-.22.141-.332.048-.117.091-.236.124-.359.028-.105.05-.213.073-.321l.013-.069c.051-.142.102-.287.137-.434.082-.341.121-.692.156-1.043.02-.207.038-.412.052-.62.004-.016.006-.034.004-.05.012-.17.024-.337.033-.506.022-.38.028-.763.033-1.145 0-.095.004-.19 0-.285-.004-.1-.01-.2-.02-.3zm-23.01-6.698c-.003.01-.009.019-.013.03l-.006.007-.062.085.045-.069-.003.004.04-.055zm6.255 14.442.01.004a3.655 3.655 0 0 1-.298-.167 1.906 1.906 0 0 1-.141-.108c-.13-.117-.252-.242-.383-.358-.132-.118-.269-.227-.4-.343a6.758 6.758 0 0 1-.553-.549 5.56 5.56 0 0 1-.35-.473c-.11-.16-.225-.315-.334-.476a9.858 9.858 0 0 1-.338-.538c-.105-.18-.212-.357-.306-.543a5.37 5.37 0 0 1-.179-.398c-.055-.141-.11-.285-.16-.427 0 .004.003.007.004.013a8.432 8.432 0 0 1-.278-.984V53.254a9.03 9.03 0 0 1-.133-1.015 7.217 7.217 0 0 1-.016-.478.192.192 0 0 0 .019-.12.522.522 0 0 1-.007-.063c-.005-.116-.008-.23-.01-.345 0-.05.004-.1.005-.15.006-.188.018-.374.029-.561.02-.107.038-.214.055-.32.027-.176.046-.352.08-.526.04-.193.092-.383.131-.575l.05-.255c.042-.204.095-.402.162-.6.106-.3.222-.596.364-.88.082-.156.168-.31.252-.467.091-.169.18-.339.277-.505.094-.158.196-.309.294-.463.099-.155.195-.314.298-.467l.098-.137c.174-.172.358-.333.543-.495.125-.111.249-.222.369-.338.112-.11.223-.219.339-.323-.003.003-.005.005-.01.007l.015-.012c.052-.045.103-.085.158-.123.22-.142.453-.264.68-.393.218-.124.43-.254.653-.368.08-.04.161-.077.244-.11.087-.028.177-.048.265-.07.091-.024.182-.052.272-.078.105-.03.21-.06.31-.099.088-.033.175-.069.262-.101.165-.056.336-.095.506-.131.134-.025.268-.046.401-.069.124-.02.247-.038.37-.048.156-.01.313-.012.469-.015.093 0 .187-.004.28-.005a.195.195 0 0 0 .1.028h.282c.054.007.106.014.16.018.127.01.252.015.379.021.249.021.493.078.74.124.059.01.12.021.18.028.16.059.314.138.476.194.2.07.408.118.61.185a11.901 11.901 0 0 1 .827.361c.176.089.347.185.517.284.153.09.31.17.459.268.13.087.248.186.372.282.116.09.232.18.343.276a7.496 7.496 0 0 1 .6.593l.015.018c.143.166.27.342.408.513.142.18.28.36.411.547a4.837 4.837 0 0 1 .258.453l.01.017a7.202 7.202 0 0 1 .219.498c.04.106.081.21.122.314l.015.022c-.006-.006-.01-.014-.015-.02.041.06.08.12.11.186.027.06.051.12.075.182.047.123.104.242.149.364.044.122.09.243.13.367a2.388 2.388 0 0 1 .077.368c0 .008.002.016.004.025.026.17.054.339.098.505.036.13.04.265.039.4 0 .15-.006.302-.01.453-.003.085-.01.17-.017.254-.005.07-.006.139-.013.209-.012.127-.024.257-.032.385-.005.081-.007.164-.011.247-.004.095-.015.188-.024.281v.004l-.003.024v.003a8.956 8.956 0 0 1-.096.644c-.013.072-.026.144-.047.214-.02.068-.039.137-.056.204-.03.127-.066.25-.1.377a.291.291 0 0 1-.01.032c-.012.057-.026.113-.039.17-.04.168-.084.336-.14.5-.1.28-.224.552-.34.826.003-.006.006-.011.007-.018l-.021.051.012-.027c-.044.105-.083.212-.126.318l.011-.028c-.078.196-.175.38-.264.572l-.126.272c-.045.097-.087.197-.137.292a7.82 7.82 0 0 1-.284.487c-.094.148-.2.282-.311.418-.092.115-.18.236-.269.353a2.314 2.314 0 0 1-.157.185l-.033.037c-.024.03-.054.056-.08.083a2.61 2.61 0 0 1-.091.081c-.075.066-.147.136-.224.2-.08.063-.165.12-.248.178a8.74 8.74 0 0 1-.49.327.299.299 0 0 1-.061.047c-.062.04-.124.083-.186.124-.1.065-.2.121-.306.174-.091.046-.177.1-.266.15a2.648 2.648 0 0 1-.366.168l-.017.012a2.9 2.9 0 0 1-.203.122 2.876 2.876 0 0 1-.324.132c-.16.054-.323.103-.486.149-.149.042-.298.084-.45.116a7.296 7.296 0 0 1-.792.11c-.254.02-.507.067-.763.087-.28.014-.563-.004-.842-.022a4.982 4.982 0 0 1-.567-.074 7.837 7.837 0 0 1-.716-.19 18.168 18.168 0 0 1-.66-.218c-.109-.038-.217-.074-.325-.11a4.278 4.278 0 0 1-.464-.187c-.17-.09-.327-.205-.49-.308a5.676 5.676 0 0 0-.487-.268zM100.25 61.066a2.105 2.105 0 0 0-.361-.414c-.115-.103-.23-.207-.356-.296-.112-.077-.236-.125-.365-.163s-.263-.065-.396-.083c-.168-.023-.338-.03-.508-.038-.19-.01-.38-.006-.572-.005-.372.003-.745.018-1.117.043.01 0 .019 0 .027-.002-.35.023-.699.039-1.05.04-.179.001-.357.007-.536.01-.185.003-.37.003-.555.007-.37.01-.74.042-1.112.042-.204 0-.41-.001-.614-.005-.185-.004-.37-.01-.554-.008-.169 0-.339 0-.508.005-.18.006-.36.022-.542.035.006 0 .011 0 .016-.002-.254.016-.507.016-.762.016h-.234c-.085 0-.17 0-.254.003-.097-.01-.196-.017-.294-.024-.137-.01-.273-.014-.408-.024l-.137-.009h.018c-.245-.016-.492-.016-.737-.016h-.273c-.141-.001-.282-.005-.423-.008l-.052-.011c-.044-.01-.09-.016-.137-.025h.004c-.047-.01-.093-.027-.14-.039-.062-.016-.125-.027-.187-.04a.079.079 0 0 1-.017-.002c-.026-.01-.054-.021-.08-.034-.033-.017-.064-.038-.097-.054l-.064-.03c-.021-.011-.041-.024-.06-.036l-.009-.007c-.01-.01-.022-.018-.034-.027l-.049-.053c-.04-.046-.079-.092-.113-.143a1.915 1.915 0 0 1-.104-.18 2.06 2.06 0 0 1-.156-.455 9.705 9.705 0 0 1-.062-.273 4.962 4.962 0 0 1-.084-.64v.008c0-.014-.003-.027-.003-.04v.009l-.004-.066c-.006-.13-.006-.257-.006-.385v-.398c0-.128.005-.257.006-.384l.001-.4c0-.12.003-.24.003-.362 0-.127 0-.252.005-.379.006-.117.01-.233.014-.35.002-.106 0-.21.009-.315v.009c.008-.11.02-.222.034-.332.01-.093.024-.184.04-.275a2.14 2.14 0 0 1 .072-.271 3.546 3.546 0 0 1 .162-.388c.019-.037.04-.074.062-.11l.004-.006-.002.005c.03-.043.063-.084.098-.125.052-.058.107-.113.165-.165.03-.026.064-.051.095-.079l.005-.005.05-.01c.085-.016.17-.035.252-.053l.073-.018c.62-.018 1.24-.013 1.859-.013.19 0 .38-.001.568-.008.187-.006.375-.005.562-.015.194-.01.389-.019.583-.022.195 0 .389 0 .584-.002.394 0 .788 0 1.181-.007.18-.002.357-.013.537-.018.183-.005.368-.007.55-.008.377 0 .752.016 1.128.017.195 0 .39-.01.587-.022.198-.015.394-.037.59-.05h-.006c.171-.011.343-.016.514-.019.17-.003.339 0 .509-.013h-.005c.292-.021.586-.053.875-.098.14-.02.282-.04.415-.087a1.56 1.56 0 0 0 .382-.203l.018-.012c.06-.033.12-.068.177-.108.205-.14.385-.314.511-.53a1.2 1.2 0 0 0 .137-.335c.028-.12.033-.242.032-.365-.003-.183-.004-.368-.022-.551a2.428 2.428 0 0 0-.044-.276.967.967 0 0 0-.096-.253 1.923 1.923 0 0 0-.327-.43 1.964 1.964 0 0 0-.501-.338 3.469 3.469 0 0 0-.248-.115 4.099 4.099 0 0 0-.5-.168 2.715 2.715 0 0 0-.554-.094c-.19-.011-.38-.008-.57-.012-.178-.004-.358-.01-.537-.01-.38-.003-.76.006-1.14.014-.193.004-.387 0-.58-.007-.201-.005-.4-.018-.6-.022-.805-.017-1.588.07-2.387.128-.236.014-.47.014-.705.018-.238.003-.474.007-.71.003-.195-.003-.39-.01-.584-.017-.2-.007-.402-.006-.602-.006-.408 0-.816.003-1.224-.02a7.29 7.29 0 0 1-.339-.032l-.054-.027h.004a4.272 4.272 0 0 1-.204-.107c-.062-.034-.125-.068-.183-.108l.006.006a1.546 1.546 0 0 1-.08-.06c-.003-.001-.004-.004-.005-.004l-.028-.025.002.003-.005-.005c-.025-.023-.047-.048-.07-.073l.006.007a.868.868 0 0 1-.069-.089.964.964 0 0 1-.092-.191 2.404 2.404 0 0 1-.048-.165c-.023-.088-.05-.178-.068-.267-.01-.05-.017-.1-.024-.15-.008-.061-.016-.12-.022-.181-.016-.123-.033-.246-.041-.37-.006-.085-.007-.17-.008-.257 0-.09 0-.181-.002-.272-.002-.1-.01-.198-.013-.297-.002-.1-.002-.198-.002-.297 0-.114.006-.23.008-.344v-.291c0-.097.002-.186.007-.28.004-.09.007-.182.012-.271.008-.123.023-.246.033-.368l.016-.177a1.64 1.64 0 0 1 .028-.171c.022-.111.05-.22.076-.329l.007-.027c.038-.097.076-.193.123-.285.04-.078.085-.153.134-.227l-.003.004a.204.204 0 0 0 .015-.021 2.194 2.194 0 0 1 .103-.136c.042-.04.085-.079.129-.118l-.003.002c.035-.03.07-.06.106-.088l.049-.024c.083-.04.166-.082.253-.113l.066-.021.097-.012c.11-.016.22-.025.331-.033h-.01c.073-.006.147-.007.221-.006.075.002.149.004.223.004.074 0 .146 0 .22-.002.066-.002.132-.008.198-.012.078-.004.155-.005.233-.005.078 0 .158.002.236-.003h.027c.05-.005.1-.012.15-.021a43.353 43.353 0 0 0 .787.008h.096c.168 0 .335-.001.501-.01.198-.007.395-.022.59-.026.196-.004.391-.005.588-.005h.155c.139 0 .278 0 .418-.005.193-.008.385-.033.582-.048a.096.096 0 0 0 .02-.002h-.006.027c.038 0 .077-.006.116-.007.104-.005.208-.01.312-.017l.164-.01h.005c.051-.005.101-.007.154-.011h.71c.373 0 .743.005 1.114-.019.183-.012.366-.034.55-.054.185-.018.371-.033.557-.046h-.026c.027 0 .056-.003.085-.004.202-.012.404-.018.606-.024.193-.005.386-.011.578-.037a1.998 1.998 0 0 0 .504-.117c.156-.022.311-.051.463-.095.037-.01.074-.02.11-.033h.022a.351.351 0 0 0 .14-.033c.092-.04.175-.096.253-.162a1.915 1.915 0 0 0 .474-.359c.148-.158.28-.34.355-.545.079-.22.12-.445.101-.678a1.269 1.269 0 0 0-.07-.324 1.471 1.471 0 0 0-.08-.421 1.009 1.009 0 0 0-.107-.216c-.038-.057-.078-.114-.117-.17a2.107 2.107 0 0 0-.31-.375 1.203 1.203 0 0 0-.398-.23 2.955 2.955 0 0 0-.56-.148 2.842 2.842 0 0 0-.486-.024c-.164.003-.33.016-.494.017-.112.002-.224 0-.336 0H97.4c-.359 0-.717.008-1.076.016-.384.01-.77.004-1.154 0-.377-.005-.753.005-1.128.021a18.3 18.3 0 0 1-1.776-.022 10.362 10.362 0 0 0-.608-.019c-.385-.005-.77 0-1.155 0-.798 0-1.597.004-2.396.008-.407.002-.813.015-1.22.028-.204.007-.407.016-.608.033-.193.016-.384.04-.577.063l-.439.053c-.026 0-.054.003-.08.004a4.15 4.15 0 0 0-.543.058c-.006 0-.01.003-.019.003-.051-.033-.115-.032-.173-.027a1.723 1.723 0 0 0-.397.105c-.031.007-.061.016-.092.026a.402.402 0 0 0-.21.13c-.082.05-.161.106-.238.168a1.706 1.706 0 0 0-.372.419 2.19 2.19 0 0 0-.203.427 4.413 4.413 0 0 0-.254 1.325c-.021.479-.04.956-.07 1.435v-.004c-.017.248-.037.495-.044.745s-.008.498-.008.747c0 .49 0 .977-.03 1.465v-.018c-.016.242-.033.485-.043.727-.01.24-.012.482-.014.722-.002.462.006.925-.009 1.387-.008.269-.013.536-.017.805-.003.253-.013.505-.016.758-.006.499-.008.997-.018 1.495-.01.488-.033.976-.038 1.464-.004.479 0 .957.002 1.436v1.39c0 .249.007.495.01.742.005.237.005.474.005.71v1.448c0 .232-.003.464.004.695.006.23.025.463.038.693.013.238.033.475.05.712.014.207.03.414.046.621.016.2.034.399.084.591.066.255.192.49.34.707a2.433 2.433 0 0 0 .433.486c.143.111.309.186.47.263l.034.016.133.068c.14.07.285.133.428.2.305.138.621.258.955.309.2.03.402.055.603.082.193.026.387.047.582.062.177.013.354.02.53.02h.05c.177-.003.354-.018.533-.03h.04c.663-.044 1.327-.06 1.992-.061.195 0 .39.002.585 0 .214-.004.427-.018.641-.037.389-.036.777-.089 1.166-.116.201-.014.404-.022.606-.03.2-.009.398-.03.596-.043h-.012c.17-.012.34-.024.512-.032.362-.015.725-.013 1.087-.014.18 0 .359 0 .54-.01.184-.013.368-.031.55-.044.338-.021.677-.02 1.015-.02h.5c.15 0 .299 0 .446-.01h.017-.009c.185-.012.37-.045.553-.058h-.027c.044-.002.087-.004.13-.008.04-.003.081-.003.124-.004.072-.002.145 0 .217 0 .13 0 .248-.06.363-.11.154-.068.312-.129.462-.207a.179.179 0 0 0 .078-.084c.119-.091.224-.197.323-.307.06-.066.114-.136.158-.214.022-.038.043-.076.064-.119l.005-.009.001-.004c.016-.033.033-.067.048-.101.071-.172.108-.36.104-.546a2.257 2.257 0 0 0-.327-1.114zM129.987 53.12c.008-.189.014-.377.013-.566 0-.185-.003-.368-.004-.552 0-.172.003-.342-.007-.513-.009-.173-.026-.346-.039-.518-.016-.272-.009-.545-.011-.818 0-.285-.014-.57.005-.856v.007a7.368 7.368 0 0 0-.005-.997c0-.04.003-.078.003-.117 0-.802-.001-1.603.013-2.405.004-.196.016-.393.024-.59.008-.198.009-.397.01-.597.003-.407.006-.813.002-1.22-.003-.204-.01-.405-.016-.608-.007-.194-.009-.388-.011-.582-.002-.2-.002-.402-.021-.602a1.894 1.894 0 0 0-.025-.182 3.8 3.8 0 0 0-.025-.281 2.343 2.343 0 0 0-.104-.47 1.076 1.076 0 0 0-.088-.195l-.082-.125.014.021c-.058-.087-.118-.171-.176-.257-.054-.08-.106-.163-.168-.237-.06-.073-.138-.13-.211-.19a1.64 1.64 0 0 0-.14-.099 1.864 1.864 0 0 0-.378-.202 1.207 1.207 0 0 0-.274-.133l-.029-.02a.57.57 0 0 0-.207-.066.993.993 0 0 0-.14-.009 1.252 1.252 0 0 0-.337-.047.94.94 0 0 0-.173.018 3.83 3.83 0 0 0-.176.005h-.026c-.066.008-.13.018-.196.028-.037.007-.076.012-.112.021-.031.008-.061.02-.091.03-.065.022-.132.04-.197.064l-.063.026a1.096 1.096 0 0 0-.129.054 2.855 2.855 0 0 0-.335.197c-.032.025-.061.054-.091.08.006-.005.013-.01.018-.016-.056.05-.109.102-.159.16a.874.874 0 0 0-.082.11 1.78 1.78 0 0 0-.079.112l-.089.11a.58.58 0 0 0-.089.152c-.007.02-.015.04-.02.06-.039.069-.063.143-.092.215-.023.06-.05.118-.071.178-.031.085-.051.17-.073.255a4.091 4.091 0 0 0-.057.245l-.048.27c-.011.066-.027.132-.036.2-.011.078-.024.159-.03.238-.008.108-.011.216-.015.324l-.008.218-.002.03a8.594 8.594 0 0 0-.037.426c-.007.13-.007.259-.007.39 0 .147-.003.294-.004.442-.002.338 0 .675 0 1.013v.059c-.002.055-.004.11-.001.165v.004l-.008.386c-.003.112-.003.224-.005.336l-.011.231c-.005.178-.003.356-.003.534 0 .091 0 .182.002.273.002.107.012.215.018.322.011.207.007.415.007.622s0 .43.004.645c.002.096.009.192.012.288l.013.381c.009.255-.001.51.012.764.006.133.016.266.019.4.004.136.006.275.008.412 0 .045 0 .09-.002.134l-.006.109a5.63 5.63 0 0 1-.005.133l-.001.213c0 .03 0 .06.003.089.002.026.005.052.006.079v-.004c.001.028.003.055.003.083l.002.088v.087a.57.57 0 0 0 .006.07c0 .028-.003.054-.003.082a7.813 7.813 0 0 0-.005.216c-.002.08-.006.161-.007.241v.749c0 .119.001.238.005.356.003.06.01.119.016.18l-.002.046c-.002.079.004.158.009.237.021.34.017.682.017 1.023v.282a1.692 1.692 0 0 0-.016.144 5.026 5.026 0 0 0-.009.245c0 .073-.003.147-.007.22-.002.053 0 .107-.004.16v.02c-.004.04-.005.083-.006.125a2.336 2.336 0 0 1-.025.092l-.011.027.003-.004c-.012.022-.024.045-.038.067a.07.07 0 0 1-.014.017l-.002.003-.009.01-.02.014-.011.006-.009.004-.008.001h-.007.003-.075.004c-.009 0-.019-.002-.028-.004h.006c-.01 0-.019-.005-.027-.006h.004c-.021-.008-.042-.016-.063-.027h.002c-.023-.01-.044-.025-.067-.038.002 0 .003.002.004.003l-.024-.017c-.043-.056-.085-.111-.13-.165a4.145 4.145 0 0 0-.195-.228c-.057-.06-.114-.118-.169-.178-.096-.11-.174-.234-.264-.348-.11-.144-.233-.278-.354-.414a2.701 2.701 0 0 1-.168-.207c-.053-.07-.104-.141-.158-.209-.038-.046-.076-.096-.119-.138a8.511 8.511 0 0 0-.426-.554c-.056-.067-.114-.133-.17-.201l-.126-.165c-.107-.137-.203-.282-.31-.42-.054-.07-.107-.143-.161-.216a2.727 2.727 0 0 0-.134-.167c-.087-.107-.174-.214-.259-.323-.092-.118-.19-.232-.285-.348-.1-.122-.188-.25-.286-.373-.052-.068-.108-.132-.159-.2-.048-.063-.094-.126-.144-.187-.083-.105-.167-.208-.243-.32l-.01-.015-.038-.058a14.601 14.601 0 0 0-.522-.736c-.09-.115-.182-.23-.265-.35a18.1 18.1 0 0 0-.337-.48c-.118-.162-.254-.313-.369-.479-.116-.172-.216-.358-.345-.522-.131-.166-.278-.319-.4-.492-.051-.077-.096-.158-.15-.233a4.407 4.407 0 0 1-.132-.188l.008.013c-.045-.068-.088-.135-.138-.198-.053-.08-.106-.158-.16-.236l.004.005-.016-.024c-.004-.006-.006-.011-.012-.018a5.478 5.478 0 0 0-.175-.25c-.05-.068-.103-.135-.15-.205-.069-.104-.132-.212-.197-.319a5.958 5.958 0 0 0-.238-.356c-.152-.215-.314-.424-.462-.642-.149-.223-.29-.45-.435-.675-.148-.228-.31-.444-.462-.669l.003.004c-.095-.142-.186-.287-.282-.428l-.003-.004a7.971 7.971 0 0 0-.428-.59c-.141-.175-.302-.33-.451-.498 0 0 .001.003.003.003l-.012-.013c-.132-.156-.248-.322-.38-.478-.045-.052-.094-.104-.142-.155l-.003-.004c-.054-.075-.106-.153-.16-.227a2.443 2.443 0 0 0-.353-.364c-.108-.095-.212-.194-.326-.282-.101-.079-.211-.144-.317-.215.005.004.01.008.015.01h-.001c-.105-.073-.21-.15-.322-.213a1.838 1.838 0 0 0-.275-.123 15.977 15.977 0 0 1-.502-.19 2.122 2.122 0 0 0-.566-.159 5.386 5.386 0 0 0-.742-.038c-.18.005-.359.013-.532.066-.171.052-.35.11-.494.22a1.365 1.365 0 0 0-.277.28c-.042.05-.08.101-.113.156-.031.052-.058.106-.089.159-.037.063-.075.125-.108.19a1.728 1.728 0 0 0-.126.316c-.031.105-.061.21-.085.316a5.05 5.05 0 0 0-.109.705l-.011.055c-.03.163-.05.327-.06.492 0 .017-.003.034-.003.05-.03.266-.046.534-.063.8l.001-.026c-.024.357-.048.714-.05 1.073-.003.36-.007.721-.007 1.081v4.347c0 .378-.004.758 0 1.136.005.364.009.73.009 1.093s0 .698.003 1.046c.004.332.009.665-.003.995-.006.17-.014.338-.015.507V55.79c0 .102 0 .204-.003.307l-.003.027-.005.122c-.012.155-.028.31-.033.468 0 .018.001.038.007.055a5.842 5.842 0 0 0-.007.187c-.005.15-.001.298-.001.447s-.005.309-.016.462v-.003c-.003.05-.007.102-.008.153-.007.191-.016.381-.016.571 0 .175.003.35-.004.526-.006.168 0 .335-.006.502-.007.168-.011.335-.011.501 0 .309-.006.617.015.926.014.195.03.392.058.587.023.172.058.344.077.517.02.166.044.33.064.497.009.073.022.149.042.22.021.072.049.14.074.212.038.112.068.228.109.339.029.076.061.155.104.225.045.073.093.147.144.214.104.14.252.227.394.322.07.047.145.092.226.118.055.019.113.02.17.03a.03.03 0 0 1 .009.003l.055.019a1.3 1.3 0 0 0 .265.04c.032.003.065.005.097.006.047.01.097.01.147.008a3.255 3.255 0 0 0 .312 0 .926.926 0 0 0 .17-.027c.031 0 .063 0 .095-.005a.95.95 0 0 0 .267-.078 1.213 1.213 0 0 0 .268-.09c.059-.03.117-.06.174-.096a1.364 1.364 0 0 0 .293-.237l.064-.067a1.198 1.198 0 0 0 .377-.442l.069-.147.066-.145c.026-.057.049-.117.068-.176.016-.051.028-.105.039-.16a8.57 8.57 0 0 0 .055-.322c.017-.11.036-.22.042-.329.008-.12.007-.24.008-.36v-.31c0-.057 0-.113-.003-.17-.002-.065-.008-.131-.013-.197v-.004c.008-.087.015-.176.021-.263.011-.14.015-.28.015-.422 0-.095-.004-.188-.008-.283v-.708c.02-.145.039-.29.049-.435.017-.278.008-.557.023-.835.012-.167.028-.335.033-.502.006-.168.006-.335.007-.504.004-.267.017-.534.018-.801.002-.261.003-.521 0-.782-.001-.267-.006-.532-.006-.798v-4.431c.001-.036.002-.071.005-.106v-.02.01l.011-.155.005-.153c.003-.087.003-.174.007-.262a2.68 2.68 0 0 1 .006-.126c.003-.037.003-.076.003-.113v-.113c0-.034.002-.068.004-.104.001-.038.002-.077.005-.115.003-.037.005-.072.005-.11.002-.076 0-.152 0-.229 0-.068-.001-.135.003-.203.003-.054.003-.106.003-.16v-.139c0-.055.003-.11.007-.166v-.019.004l.003-.042a1.34 1.34 0 0 1 .013-.105c.007-.042.011-.086.019-.128v.004a1.2 1.2 0 0 1 .014-.057v.003a.187.187 0 0 1 .011-.027l.009-.012.004-.003a.38.38 0 0 0 .029-.027l.042-.008a.76.76 0 0 1 .073.02l.023.01a.41.41 0 0 1 .033.03l.004.004c.104.135.201.276.304.414.112.149.218.3.325.454.108.159.219.314.338.463.118.148.228.3.34.452.108.148.225.288.331.438.09.135.18.27.281.397.097.127.195.253.294.378.103.13.204.26.302.393.087.119.175.236.258.356l.015.021-.007-.007.237.36-.01-.015.039.06c.102.146.213.284.325.424l.371.46c.12.149.238.3.356.447.127.158.264.307.391.465.125.156.241.32.36.48.12.162.237.326.361.487.12.155.244.307.37.459.126.15.244.306.366.458.12.152.24.304.353.46.123.17.248.338.38.5.129.16.266.311.394.471.128.16.248.324.364.493.117.17.238.335.372.493.11.133.226.263.342.39.027.035.051.07.078.102.069.083.141.165.212.245l-.015-.018.021.024.006.007.012.015c.102.116.199.236.288.361.084.12.17.24.263.355.182.221.354.45.524.681.225.31.486.592.728.89l.1.122c.024.027.047.058.074.084.014.019.031.036.047.053.071.075.144.149.214.225.126.139.252.28.381.416.126.133.263.258.395.386l.377.364.189.187a6.775 6.775 0 0 0 .22.198c.12.108.233.227.367.319.117.082.238.153.357.232.062.042.124.087.188.125.074.044.152.082.229.122a2.666 2.666 0 0 0 .626.222H126.846c.149.027.302.024.452.035h-.005c.109.008.219.01.33.01h.079c.12 0 .237-.002.356-.024.023-.003.049-.007.072-.014l.027-.005.066-.015c.051-.012.101-.028.151-.045a1.8 1.8 0 0 0 .263-.124c.03-.015.062-.031.091-.05a.921.921 0 0 0 .109-.085l-.011.009c.048-.041.094-.08.138-.128.047-.053.09-.107.131-.167a1.52 1.52 0 0 0 .111-.21c.041-.06.078-.12.111-.182a2.467 2.467 0 0 0 .274-.878c.026-.187.052-.375.087-.56.036-.182.063-.366.083-.55.024-.232.02-.466.02-.698 0-.232 0-.478-.008-.717v-.029l.025-.28c.013-.17.029-.34.038-.511.011-.18.012-.36.01-.54 0-.117-.01-.233-.019-.349.015-.137.03-.275.04-.414v.007c.021-.31.013-.623.015-.932.002-.188 0-.373 0-.56l.018-.177c.015-.194.018-.39.026-.583.008-.185.02-.37.028-.554.008-.17.005-.339.005-.509v-.534c0-.18.014-.357.021-.536zm-17.939 9.738v-.003l.022-.062c-.007.025-.012.05-.02.075-.002.008-.008.018-.01.027a.476.476 0 0 1 .008-.037zm13.043-9.12v.013zM22.966 44.501c-.014-.4-.11-.802-.247-1.18a3.94 3.94 0 0 0-.213-.512 7.461 7.461 0 0 0-1.614-2.137c-.664-.597-1.727-1.266-2.52-1.66-.974-.481-1.733-.66-2.784-.94a9.652 9.652 0 0 0-1.983-.35 5.637 5.637 0 0 0-.7-.007c-.224.012-.447.027-.671.045a14.32 14.32 0 0 0-3.986.902c-.099.038-.195.086-.29.134-.211.105-.422.214-.628.328-.203.115-.4.238-.604.352-.104.06-.205.118-.304.186-.091.062-.178.13-.266.198-.18.14-.356.283-.536.424-.183.144-.37.284-.543.443-.166.153-.324.316-.488.472-.165.159-.324.322-.48.491-.16.174-.317.35-.48.522-.162.17-.32.339-.466.524-.29.365-.562.743-.827 1.125a8.524 8.524 0 0 0-.698 1.177c-.105.21-.21.421-.308.635-.096.212-.189.426-.276.64-.09.222-.178.444-.262.667a12.376 12.376 0 0 0-.54 2.07C-.322 52.4 0 56.82 2.067 59.654c1.253 1.718 2.918 3.192 4.884 4.04.237.103.485.18.737.237.241.057.485.1.728.148 2.424.484 5.013.431 7.394-.247a17.652 17.652 0 0 0 5.068-2.328c.2-.135.402-.27.59-.422.595-.477.892-1.096.809-1.864-.037-.343-.135-.689-.34-.965-.298-.403-.795-.619-1.291-.686-.667-.09-1.472-.029-2.086.262a6.55 6.55 0 0 0-.658.37c-.676.424-1.404.795-2.105 1.185-.765.426-1.506.612-2.363.738-.305.045-.61.089-.918.114-.341.02-.687.005-1.028-.018-.32-.023-.637-.065-.954-.11-1.046-.15-1.86-.434-2.72-1.068-.998-.733-1.844-1.478-2.341-2.646-.42-.985-.713-2.15-.795-3.218-.003-.026-.004-.054-.005-.081-.04-2.091-.054-4.495.896-6.413.882-1.726 2.214-3.043 3.808-4.106a5.454 5.454 0 0 1 .585-.34c.93-.472 2.107-.724 3.14-.692 1.422.042 2.375.291 3.438.956.286.179.575.353.856.541 0 0-.003 0-.003-.002l.013.009c.111.076.22.156.329.235l.051.07.084.108.03.06.011.024c.023.073.044.146.061.22 0 .006.001.01.003.016l-.003.096c-.003.075-.004.15-.005.226v.246c-.01.082-.017.162-.017.244-.002.207.015.417.048.621.032.202.077.402.156.592.15.361.438.654.774.85.183.107.384.196.59.249.111.027.223.044.337.054a3.6 3.6 0 0 0 .518.06 2.512 2.512 0 0 0 .622-.042c.08-.016.16-.04.238-.069 0 0 0 .003.002.003a.037.037 0 0 0 .02.005.084.084 0 0 0 .025-.004l.06-.015a1.27 1.27 0 0 0 .134-.052c.598-.278 1.107-.778 1.345-1.399.117-.308.16-.627.149-.948zM77.046 41.106a.823.823 0 0 0-.028-.24 1.166 1.166 0 0 0-.026-.073 1.522 1.522 0 0 0-.156-.438.898.898 0 0 0-.07-.149 2.662 2.662 0 0 0-.118-.182c-.035-.047-.074-.092-.11-.138-.038-.051-.072-.105-.113-.156a.6.6 0 0 0-.17-.14l-.054-.027a1.043 1.043 0 0 0-.36-.196c-.02-.007-.04-.014-.06-.019a.634.634 0 0 0-.096-.045c-.04-.016-.083-.025-.125-.038l-.087-.028a.649.649 0 0 0-.142-.029 1.382 1.382 0 0 0-.182 0 2.01 2.01 0 0 0-.453-.026h-.684c-.178-.001-.356-.012-.533-.016-.19-.005-.38-.001-.572-.001-.308 0-.617 0-.924.002-.392.003-.782.03-1.174.036-.362.007-.725-.015-1.089-.026-.196-.007-.392-.014-.59-.014s-.39 0-.583-.004c-.378-.006-.757 0-1.135 0-.195 0-.39 0-.583.008-.178.008-.356.021-.534.021h-2.261c-.193 0-.386 0-.579-.002-.196-.003-.393-.007-.59-.005a7.35 7.35 0 0 0-.612.025c-.185.018-.368.042-.554.058h-.007l-.018.001.017-.001c-.235.014-.47.015-.705.018-.393.003-.785 0-1.178.017-.291.012-.584.012-.875.012h-.317a3 3 0 0 0-.564.036 2.374 2.374 0 0 0-.385.035c-.06.012-.121.024-.18.044a2.06 2.06 0 0 0-.333.145 3.277 3.277 0 0 0-.47.316 1.575 1.575 0 0 0-.146.135 1.075 1.075 0 0 0-.166.227.683.683 0 0 0-.174.242 1.708 1.708 0 0 0-.067.161l-.004.012a.538.538 0 0 0-.042.092 1.092 1.092 0 0 0-.037.14c-.024.113-.038.23-.045.344a5.273 5.273 0 0 0 .02.741c.014.112.034.224.063.334.025.096.058.19.106.278.052.099.113.191.187.274.042.047.09.091.134.136.036.034.069.071.106.104.049.042.104.08.165.103l.04.014c.019.015.039.028.058.041.037.023.076.042.115.06.075.036.15.07.223.106-.003 0-.005-.002-.008-.004.042.021.083.044.125.064s.085.037.13.051c.1.033.204.053.308.074l-.01-.001c.072.014.142.03.212.047a1.208 1.208 0 0 0 .289.032c.047 0 .093 0 .14-.003h.02l.014.001a2.706 2.706 0 0 0 .295.018H58.847l.06.009c.064.006.127.013.192.017l.187.01c.008 0 .016 0 .024.002h-.01l.064.004a4.243 4.243 0 0 0 .62.05c.061 0 .122 0 .184-.002l.187-.009c.126-.006.25-.009.376-.014.124-.006.248-.01.372-.017.133-.008.265-.02.398-.037.13-.016.261-.033.39-.046.13-.014.26-.024.39-.033h.007c.077-.006.153-.008.23-.01h.122a.84.84 0 0 1 .1.012l.115.028c.036.008.07.018.104.03.019.007.036.015.053.023h.001l.006.002h-.003a1.427 1.427 0 0 1 .32.22l-.002-.003c.04.035.08.073.117.114.024.028.045.057.066.086.055.082.11.167.154.256l.061.118-.004-.008c.012.023.021.045.032.07.011.027.026.054.04.08.027.06.05.122.072.184 0-.001 0-.004-.002-.005a4.64 4.64 0 0 1 .048.155c.01.08.024.159.029.238v.012l.002.056.007.153c0 .01.001.017.003.027-.004.192-.012.386-.017.578a38.77 38.77 0 0 0-.016.682c-.003.214 0 .428-.007.642-.006.23-.018.459-.02.69-.005.212-.006.424-.009.635-.003.226-.003.452-.012.68l-.03.633c-.019.428-.019.856-.019 1.283v1.254c0 .222 0 .444.004.666.006.207.01.414.014.621.002.204.006.409.015.612.01.217.025.435.04.652v-.016c.024.41.04.818.044 1.228.003.428 0 .857.002 1.284 0 .218 0 .435.005.653.006.225.01.45.012.675.002.184.008.368.019.552.012.214.02.428.027.641.008.21.019.42.025.63.006.176.006.352.006.53 0 .36.05.72.116 1.075.033.177.068.352.114.526.048.174.09.36.19.514.12.189.284.347.468.472.073.049.148.091.225.135.073.042.147.087.224.126.3.16.63.25.97.263a3.024 3.024 0 0 0 .392-.003c.17-.015.339-.053.497-.116.092-.036.18-.08.257-.14a2.37 2.37 0 0 0 .237-.207c.146-.145.261-.314.364-.49.069-.118.14-.232.203-.35.084-.16.158-.327.216-.497.035-.099.07-.197.093-.3.02-.1.035-.195.043-.296.016-.224.012-.45.013-.675v-1.832c0-.196.003-.39-.002-.584-.01-.362-.021-.722-.021-1.083v-.543c0-.18-.003-.376.009-.563.013-.157.035-.313.06-.468.024-.17.039-.342.048-.513.018-.357.01-.716.021-1.075.013-.42.044-.84.06-1.26.014-.404-.005-.81.022-1.213.013-.2.026-.4.031-.601.006-.207.006-.413.007-.62 0-.384.004-.769 0-1.154-.003-.228-.013-.456-.016-.684 0-.107 0-.214-.004-.32a5.533 5.533 0 0 0-.017-.296 8.857 8.857 0 0 1-.02-.528c-.004-.385.002-.77-.012-1.154-.006-.194-.002-.389-.011-.583-.01-.183-.024-.366-.037-.548a9.913 9.913 0 0 1-.016-.563l-.001-.206c.005-.046.01-.094.017-.14l.029-.216a2.993 2.993 0 0 1 .45-.78l.023-.023.08-.06.085-.036.2-.09.136-.06a1.547 1.547 0 0 1 .158-.039 2.61 2.61 0 0 1 .285-.035h-.01c.055-.004.109-.002.163 0 .036 0 .071.002.107.001.033 0 .064-.003.096-.003l.212-.002c.048 0 .097-.002.143 0 .038.002.075.009.113.012.044.004.086.005.13.005h.144c.069-.003.137-.005.206-.005h.098c.06 0 .122-.004.183-.004.118-.002.237-.004.356.004.02 0 .04.002.06.004h-.01c.045.004.088.004.133.006.036.003.073.007.11.008l.105.005h.01l.266.024.09.01c.036.002.072.003.109.003.052 0 .105 0 .157-.002.054-.003.106-.006.16-.007.057-.003.114-.005.17-.005.065 0 .13 0 .194-.007l.15-.014.208-.01c.058-.004.116-.006.174-.011h-.016c.031 0 .064-.003.096-.004.033 0 .066-.003.099-.004.063-.006.127-.008.188-.019.057-.009.114-.025.168-.04l.166-.05c.053-.017.107-.031.16-.046.06-.017.12-.038.179-.058h-.003a2.189 2.189 0 0 0 .29-.126l.024-.012-.008.004c.003 0 .005-.003.007-.004h.002l.004-.003c.058-.029.12-.054.178-.081.058-.028.115-.06.173-.089.03-.014.06-.026.088-.04.043-.02.083-.043.124-.065a.859.859 0 0 0 .102-.062c.03-.021.06-.045.088-.066a1.15 1.15 0 0 0 .1-.078c.035-.032.068-.066.103-.097.027-.026.053-.05.077-.076.046-.051.083-.109.122-.166a.853.853 0 0 0 .07-.108l.028-.062a.435.435 0 0 0 .066-.169v-.008l.008-.014c.005-.01.008-.021.012-.033l.018-.044a.542.542 0 0 0 .03-.129l.008-.059a.122.122 0 0 0 .007-.021c.012-.042.024-.083.032-.125.007-.04.011-.08.015-.119.003-.021.003-.04.004-.062a.366.366 0 0 0 .01-.092c0-.027-.006-.052-.01-.078l-.008-.05z"/><path fill="#ffa780" d="M65.42 36.887a.799.799 0 0 0-.245-.334 1.304 1.304 0 0 0-.18-.138 1.696 1.696 0 0 0-.415-.169l-.154-.04-.186-.05c-.122-.03-.244-.05-.365-.075.005 0 .009.003.013.003-.064-.016-.128-.026-.193-.04-.043-.01-.107-.009-.142-.035-.013-.01-.157-.037-.213-.073a1.92 1.92 0 0 1-.129-.095l-.013-.047c-.005-.028-.01-.055-.013-.083l-.004-.095a30.698 30.698 0 0 1-.004-.923c0-.016.003-.03.004-.045l.012-.13c.004-.047.009-.097.003-.144a.138.138 0 0 0-.011-.033l.005-.194c0-.04.004-.083 0-.124-.003-.031-.013-.06-.024-.09-.01-.029-.02-.058-.033-.084 0-.014-.002-.029-.005-.043-.01-.057-.02-.115-.038-.17a.575.575 0 0 0-.078-.142 2.38 2.38 0 0 0-.27-.324 1.045 1.045 0 0 0-.292-.177 1.863 1.863 0 0 0-.377-.106c-.055-.01-.11-.019-.166-.027-.047-.006-.093-.014-.14-.017a1.418 1.418 0 0 0-.17.003.606.606 0 0 0-.192.047.681.681 0 0 0-.224.14.232.232 0 0 0-.062.045.439.439 0 0 0-.107.207.909.909 0 0 0-.022.207.104.104 0 0 0-.019.057c0 .013.003.026.008.038v.122c0 .056 0 .11.003.165.004.098.01.194.013.292.003.097 0 .195-.004.292-.003.097-.005.192-.005.286v.354c0 .133.008.265.014.397.012.228.03.456.075.679.028.133.057.265.097.394.035.12.079.237.12.355a1.22 1.22 0 0 0 .28.456c.039.043.077.085.122.122a.58.58 0 0 0 .142.085c.051.02.104.038.156.055.097.034.193.074.29.108.079.028.158.05.242.058l.263.025c.099.01.196.024.295.027.071.002.142.002.212.002h.177c.057-.002.113-.005.17-.006.06-.002.123 0 .185-.003.064-.004.129-.013.193-.021l.203-.024c.106-.013.213-.025.318-.046.066-.013.132-.018.198-.033a.706.706 0 0 0 .355-.177c.037-.032.07-.068.108-.101.076-.067.158-.136.204-.23a.393.393 0 0 0 .035-.155c.003-.06 0-.12-.02-.177zM72.435 36.886c-.06-.204-.204-.378-.361-.518 0 0-.003-.002-.003-.004a.202.202 0 0 0-.033-.034c-.023-.022-.05-.04-.074-.062a1.435 1.435 0 0 0-.193-.138c-.054-.03-.111-.06-.17-.08-.032-.011-.073-.027-.112-.031a.632.632 0 0 0-.115-.05 1.496 1.496 0 0 0-.132-.038c-.06-.014-.121-.021-.18-.033h-.003c-.004 0-.007 0-.01-.002h.006c-.04-.009-.08-.022-.119-.034a1.16 1.16 0 0 0-.16-.04h-.009c-.04-.01-.077-.015-.117-.022h-.003l-.005-.003h-.005a.872.872 0 0 0-.141-.022c-.035-.003-.069 0-.103-.003h.002H70.382h.003l-.063-.005c-.041-.002-.08-.012-.122-.017h-.016c0-.032-.003-.06-.005-.091-.002-.057-.001-.115 0-.173.003-.092.01-.183.015-.275.01-.222 0-.445.006-.667.006-.122.01-.243.008-.364 0-.128-.01-.253-.022-.38a1.711 1.711 0 0 0-.066-.365 1.337 1.337 0 0 0-.08-.197.712.712 0 0 0-.11-.16.965.965 0 0 0-.285-.226.65.65 0 0 0-.169-.063.796.796 0 0 0-.185-.021 1.427 1.427 0 0 0-.495.087.909.909 0 0 0-.16.079c-.096.063-.181.136-.26.219a.884.884 0 0 0-.155.232 1.31 1.31 0 0 0-.11.371l-.004.035a.528.528 0 0 0-.019.092v.012a1.784 1.784 0 0 0-.016.265c-.002.186.002.373-.001.56-.003.118-.003.235-.003.352 0 .089.003.177.003.265v.25c0 .106-.003.212 0 .319.003.084.017.166.026.25.01.092.024.185.048.276.02.077.038.155.055.233.013.06.025.123.045.18a.83.83 0 0 0 .086.18c.023.037.048.072.074.11l.034.05.018.027.01.016c.04.06.077.123.12.18a.876.876 0 0 0 .208.18c.06.037.122.066.184.095l.061.03c.021.01.044.019.066.027.029.011.058.025.087.035a.378.378 0 0 0 .127.019h.009c.02.005.042.008.063.008h.198c.103 0 .207 0 .31-.002.126 0 .253.008.38.008.047 0 .094 0 .14.004h.008l.114.01h-.013l.095.009c.097.011.193.014.29.014h.131c.047 0 .09-.007.136-.01H71.194h-.002.014c.091-.006.182 0 .275-.007h-.014c.045-.003.09-.005.136-.013l.127-.027.085-.013a.893.893 0 0 0 .173-.04c.055-.02.11-.039.164-.063a.489.489 0 0 0 .166-.126.395.395 0 0 0 .06-.095.682.682 0 0 0 .084-.359.715.715 0 0 0-.026-.204z"/><path fill="#5c76a5" d="M89.45 14.056a2.235 2.235 0 0 0-.051-.322 1.033 1.033 0 0 0-.04-.18 2.343 2.343 0 0 0-.102-.484.545.545 0 0 0-.098-.197.172.172 0 0 0-.112-.057.196.196 0 0 0-.046-.025.314.314 0 0 0-.174-.052.274.274 0 0 0-.087.01.293.293 0 0 0-.082.012 1.15 1.15 0 0 0-.403.12 2.884 2.884 0 0 0-.244.13 4.34 4.34 0 0 1-.265.143l.02-.01c-.13.065-.256.133-.38.205-.12.07-.24.14-.359.214-.119.073-.23.16-.343.244-.128.094-.253.195-.383.284-.12.077-.246.143-.363.222-.12.079-.239.16-.353.245-.103.077-.205.153-.305.232-.107.087-.21.176-.324.253-.077.05-.156.095-.234.14-.098.058-.204.107-.298.173-.095.066-.18.145-.258.23-.06.065-.116.134-.18.193a4.593 4.593 0 0 0-.173.15c-.046.043-.089.089-.133.132a4.778 4.778 0 0 0-.295.3c-.043.048-.097.102-.12.163a.236.236 0 0 0-.01.043c-.054.057-.049.139-.045.211.003.043.005.087.016.13-.018.106-.03.215-.033.323-.003.133 0 .266-.01.4-.003.056-.008.111-.014.168-.025.24-.054.48-.076.721-.028.286-.049.575-.089.86-.033.245-.07.49-.093.737-.021.223-.041.444-.074.666-.04.265-.067.532-.099.799-.035.296-.076.59-.136.883-.04.195-.077.39-.114.576-.037.18-.077.36-.123.537a7.871 7.871 0 0 1-.153.497c-.075.216-.16.427-.262.633a3.327 3.327 0 0 1-.147.27c.041-.14.08-.28.11-.42.037-.172.063-.345.097-.516.046-.227.102-.45.159-.674.03-.12.06-.24.084-.361l.057-.309c.027-.151.058-.303.076-.456.02-.162.034-.326.052-.489.034-.318.055-.637.076-.956 0-.01.001-.018.003-.028v.023c.01-.174.025-.347.035-.52.01-.16.013-.317.019-.476.005-.147.013-.296.02-.445.007-.156.011-.311.02-.467.003-.04.006-.08.007-.12.001-.025.005-.053.007-.079a.135.135 0 0 0 .001-.04v-.022l.019-.227c.013-.177.031-.35.052-.526.037-.304.06-.61.122-.91l-.003.015c.028-.136.063-.27.097-.405.033-.128.06-.257.09-.385.034-.149.07-.298.11-.444a8.34 8.34 0 0 1 .14-.435c.085-.246.194-.48.288-.722.063-.164.124-.33.18-.497.052-.16.102-.317.156-.477.104-.307.189-.622.294-.93.066-.187.143-.37.224-.552.068-.153.132-.306.193-.463a8.55 8.55 0 0 1 .187-.437c.063-.139.128-.276.189-.416.033-.077.063-.155.097-.233.033-.078.07-.153.107-.228l-.01.02c.064-.128.126-.26.204-.38a.178.178 0 0 0 .064-.06c.048-.082.016-.18-.06-.23-.036-.023-.073-.042-.107-.066-.191-.132-.363-.286-.558-.411-.168-.109-.35-.197-.517-.306l-.032-.024c-.126-.09-.244-.189-.376-.27a8.427 8.427 0 0 0-.298-.18c-.166-.096-.342-.174-.5-.28-.105-.073-.207-.15-.31-.225-.136-.097-.277-.185-.428-.287-1.278-.852-2.598-1.816-4.074-2.348-.137-.049-.276-.095-.412-.15a12.972 12.972 0 0 0-3.885-.883c.012-.014.026-.027.037-.043.074-.102.149-.208.19-.328a.98.98 0 0 0 .055-.345.796.796 0 0 0-.07-.358.37.37 0 0 0-.13-.15A.33.33 0 0 0 73.79 3c-.05 0-.1 0-.148.004a.535.535 0 0 0-.21.066l-.055.03a.22.22 0 0 0-.04.028l-.02.013a.63.63 0 0 0-.096.084.551.551 0 0 0-.11.204c-.014.04-.024.084-.039.125a.577.577 0 0 1-.081.152.453.453 0 0 1-.18.162.508.508 0 0 1-.062.025c-.03.01-.06.017-.09.025a1.104 1.104 0 0 1-.07.01c-.066.005-.134 0-.2-.002a.747.747 0 0 1-.328-.095 1.803 1.803 0 0 1-.188-.11.943.943 0 0 1-.085-.065.614.614 0 0 1-.09-.104 1.099 1.099 0 0 1-.128-.25 1.017 1.017 0 0 1-.047-.235.917.917 0 0 1 .232-.728 1.16 1.16 0 0 1 .193-.176.683.683 0 0 1 .183-.095c.013-.004.026-.008.04-.01l.038-.006h.078a.74.74 0 0 1 .056.007c.01.003.019.005.037.012l.025.016c.01.006.021.016.03.023.019.018.038.036.055.055a.563.563 0 0 1 .033.044c.04.06.075.123.113.184a.461.461 0 0 0 .194.183c.035.018.072.038.11.051a.552.552 0 0 0 .296.028.818.818 0 0 0 .3-.136.776.776 0 0 0 .257-.25.555.555 0 0 0 .086-.318 1.367 1.367 0 0 0-.05-.342 2.004 2.004 0 0 0-.11-.283 1.065 1.065 0 0 0-.131-.222 1.803 1.803 0 0 0-.285-.272c-.099-.08-.213-.18-.336-.22a1.704 1.704 0 0 0-.397-.085 2.239 2.239 0 0 0-.282-.005A2.307 2.307 0 0 0 71.23.85c-.107.06-.213.123-.312.198a1.828 1.828 0 0 0-.295.28 3.439 3.439 0 0 0-.415.6c-.06.106-.106.22-.144.335a1.515 1.515 0 0 0-.071.368c-.008.116-.004.232-.004.348 0 .111 0 .222.008.333.008.108.02.213.047.319.028.117.063.234.118.342.058.12.143.218.221.323l.02.027-.03.002a5.535 5.535 0 0 0-1.515.447c-.515.226-1.043.417-1.55.661-.5.24-.986.506-1.466.783a79.858 79.858 0 0 0-1.37.824l-.226.139c-.047.029-.16.13-.213.13-.083.052-.166.103-.248.156-.056.035-.113.074-.183.11l-.06.023a.568.568 0 0 0-.1.055c-.05.033-.097.069-.143.106-.049.038-.095.079-.145.116-.071.053-.144.105-.211.163-.055.037-.11.075-.164.115-.117.087-.234.175-.362.262-.19.126-.392.238-.575.374-1.62 1.203-2.88 2.69-4.31 4.09a5.16 5.16 0 0 0-.348.375c-.104.125-.205.253-.31.377-.107.127-.215.253-.323.377-.094.106-.189.21-.276.32-.077.1-.151.2-.225.3a6.622 6.622 0 0 1-.42.523c-.113.13-.231.255-.345.384-.129.146-.248.3-.365.456-.792 1.058-1.632 2.083-2.376 3.175a4.44 4.44 0 0 1-.298.388c-.187.208-.389.402-.579.608-.166.179-.336.354-.518.518-.13.112-.269.21-.4.321-.873.748-1.864 1.26-2.892 1.792-.136.068-.276.12-.418.172a2.602 2.602 0 0 0-.218.087c-.064.03-.127.063-.195.097a.587.587 0 0 1-.077.033c-.062.02-.126.036-.188.053-.074.02-.145.04-.219.057-.047.009-.094.018-.142.029l.022-.006c-.067.014-.134.03-.201.039h-.033a.175.175 0 0 0-.06.01 6.32 6.32 0 0 1-.556-.324c-.16-.112-.314-.238-.47-.356-.163-.125-.332-.247-.496-.383l-.011-.01c-.005-.005-.01-.01-.024-.02-.01-.012-.022-.022-.034-.033l-.083-.083c-.12-.124-.24-.246-.364-.366-.115-.111-.236-.211-.343-.329-.155-.184-.292-.383-.439-.573-.079-.104-.163-.206-.246-.307a4.544 4.544 0 0 1-.224-.306c-.074-.11-.147-.222-.22-.333l-.052-.081a8.722 8.722 0 0 0-.186-.406 7.243 7.243 0 0 0-.22-.397c-.041-.071-.08-.143-.125-.211-.014-.019-.025-.038-.04-.057-.02-.04-.042-.079-.067-.117a.17.17 0 0 0-.077-.098 1.41 1.41 0 0 0-.098-.095.445.445 0 0 0-.26-.19.548.548 0 0 0-.155-.01.71.71 0 0 0-.15.021c-.256.074-.376.35-.413.59-.023.154-.01.314.007.467.021.181.066.358.117.532.095.325.22.64.375.942a7.62 7.62 0 0 0 .467.8c.179.258.391.496.609.723.11.116.225.228.336.344.123.126.243.255.366.379l.155.153-.042.004c-.103.006-.21.009-.313.004l-.076-.01a2.604 2.604 0 0 1-.301-.081 4.423 4.423 0 0 1-.638-.34c-.063-.043-.127-.085-.191-.126a5.816 5.816 0 0 0-.1-.08c-.122-.1-.248-.193-.37-.292a1.041 1.041 0 0 1-.063-.067c-.069-.08-.135-.165-.21-.238a3.253 3.253 0 0 0-.237-.209l-.046-.037c-.038-.037-.078-.072-.123-.117a5.244 5.244 0 0 0-.35-.404.165.165 0 0 0-.091-.12c-.025-.032-.05-.067-.077-.097a.802.802 0 0 0-.51-.25l-.044-.002a.453.453 0 0 0-.55.2.711.711 0 0 0-.105.438c.003.03.005.06.01.093a.325.325 0 0 0 .002.094 2.585 2.585 0 0 0 .088.32c.044.129.091.257.148.378l.051.103a.265.265 0 0 0 .056.118l.046.076c.084.133.177.26.28.377.097.106.2.207.303.306.099.094.193.196.295.288.117.106.245.197.372.29.138.1.271.207.41.309.074.055.153.107.232.153.068.04.14.076.21.115.287.155.566.321.868.445l.218.087.219.089c.16.059.328.1.492.151l.228.074c.076.024.155.042.233.06.083.02.166.042.25.059.088.018.175.03.262.048.062.014.122.03.186.041.06.012.122.02.184.027.12.013.241.016.361.017l.196.001c.05 0 .101 0 .151-.002.078-.004.156-.011.232-.019a.62.62 0 0 0 .102.174c.074.092.155.177.236.262.076.085.154.167.232.248.142.15.28.304.426.45.07.07.142.14.218.207.085.074.172.142.262.21.152.118.308.232.453.358.185.165.356.344.535.516.82.782 1.766 1.367 2.7 1.995.15.1.301.2.46.286 1.425.774 2.991 1.401 4.509 1.97.2.075.407.13.61.2.306.107.597.245.9.359.313.117.633.217.95.324 1.314.445 2.663.738 4.02 1.018 1.855.383 3.754.585 5.648.494.235-.012.802.062.99-.11h.022c1.306 0 2.535-.423 3.757-.83.762-.254 1.505-.617 2.236-.989 1.946-.99 3.647-2.214 5.153-3.806.65-.687 1.072-1.478 1.438-2.34.036-.085.074-.17.112-.254a1.076 1.076 0 0 0 .198-.071c.112-.057.219-.125.326-.192l.115-.074a9.524 9.524 0 0 0 .35-.154c.123-.057.247-.114.364-.18.115-.064.226-.133.342-.192.09-.045.179-.09.273-.128a3.257 3.257 0 0 0 .663-.35c.114-.079.217-.17.316-.258a5.3 5.3 0 0 1 .314-.253c.136-.103.272-.206.402-.315.123-.103.239-.214.352-.327.21-.209.409-.427.603-.648.132-.147.269-.29.402-.439.092-.101.18-.205.267-.31.09-.108.182-.213.265-.325.178-.243.306-.516.473-.767.043-.066.09-.131.133-.196l.012-.017a9.78 9.78 0 0 0 .352-.554c.11-.19.21-.387.307-.584.142-.288.269-.584.373-.888.104-.306.18-.62.27-.931.074-.256.162-.508.228-.766.035-.133.064-.268.089-.404.03-.162.051-.327.076-.489.045-.29.104-.577.153-.867.029-.172.057-.342.08-.514a4.465 4.465 0 0 0 .03-1.004zM62.904 8.07l-.005.006-.003.002.003-.002.016-.015-.01.01z"/><path fill="#fff" d="M82.816 16.964c-.06.3-.085.606-.122.911-.02.174-.039.35-.052.526l-.016.227v.022c0 .014 0 .027-.003.04 0 .026-.005.054-.006.079-.003.04-.006.079-.007.12-.01.156-.013.311-.021.467-.007.149-.016.296-.02.445-.005.159-.009.317-.018.475-.01.174-.025.347-.037.52v-.022.028c-.021.32-.042.638-.077.956-.017.163-.031.327-.051.49-.019.152-.049.304-.077.455-.018.103-.035.207-.056.309a6.704 6.704 0 0 1-.085.361c-.056.224-.112.447-.158.674-.034.171-.06.344-.097.515-.03.141-.069.281-.11.42.053-.086.1-.178.147-.27.101-.205.187-.416.262-.632l-.007.02a6.53 6.53 0 0 0 .16-.517c.046-.177.086-.358.122-.537v.01l.115-.586c.06-.293.1-.587.136-.883.032-.267.06-.533.099-.8.033-.221.053-.442.074-.665.023-.247.06-.492.093-.737.039-.286.06-.574.089-.86.023-.24.052-.48.076-.721a7.36 7.36 0 0 0 .015-.169c.009-.133.006-.266.009-.4.002-.109.014-.216.033-.322a.539.539 0 0 1-.016-.13c-.004-.072-.008-.155.045-.21l.002-.008-.035.022-.062.046a1.966 1.966 0 0 0-.128.106c-.069.059-.134.122-.202.183l-.014.063.002-.016z"/><path fill="#ffa780" d="M83.777 11.112v-.003l-.005-.011c.003.005.004.009.005.014z"/><path fill="#ffa780" d="M85.363 9.703c-.016-.011-.033-.02-.05-.03-.018-.013-.038-.023-.057-.036a5.798 5.798 0 0 1-.249-.186c-.099-.077-.202-.157-.308-.226a4.806 4.806 0 0 0-.25-.147c-.09-.05-.181-.102-.267-.159l-.013-.009-.021-.014c-.045-.032-.089-.065-.132-.098a2.996 2.996 0 0 0-.244-.173 8.518 8.518 0 0 0-.298-.179l-.11-.06v.015c-.013.083-.02.166-.029.25a10.906 10.906 0 0 1 .016.41c.003.063.008.126.013.188.012.125.02.25.036.374v.012l.003.008v.007l.001.01v-.004.008a5.417 5.417 0 0 0 .156.712c.031.114.056.228.088.342.033.121.071.241.115.36l.005.013.008.02c.042.107.087.212.138.315.057.115.111.23.173.341.057.102.117.203.18.302.03.048.06.095.088.144l.037-.08c.073-.168.135-.32.192-.463a8.51 8.51 0 0 1 .187-.438l.052-.11c.047-.101.093-.202.138-.304l.048-.113c.015-.041.033-.08.05-.12.033-.077.068-.152.107-.227l.031-.062c.05-.1.102-.204.164-.3a.163.163 0 0 0 .064-.061c.046-.08.02-.178-.06-.231z"/><g fill="#fff"><path d="M77.704 25.24c-.013-.592-.128-1.233-.447-1.702a.444.444 0 0 0-.051-.064l-.01-.017c-.094-.148-.187-.295-.285-.439a2.295 2.295 0 0 0-.145-.194 2.06 2.06 0 0 1-.131-.167 3.204 3.204 0 0 0-.177-.246 1.129 1.129 0 0 0-.128-.135c-.038-.033-.081-.06-.122-.087-.06-.043-.115-.09-.172-.138a1.89 1.89 0 0 0-.157-.112c-.048-.033-.096-.07-.147-.097-.052-.026-.107-.045-.16-.069-.112-.059-.217-.13-.333-.184a3.783 3.783 0 0 0-.381-.145c-.066-.024-.133-.05-.2-.066a4.925 4.925 0 0 0-.235-.052c-1.23-.233-2.41.186-3.39.92-.05.039-.098.081-.146.12-.052.043-.109.081-.16.123-.477.401-.941.905-1.271 1.435-.178.286-.316.596-.455.903a6.56 6.56 0 0 0-.45 1.333c-.031.15-.044.3-.051.453-.013.26-.01.519-.01.778 0 .148.007.296.026.443a7.722 7.722 0 0 0 .153.87 2.785 2.785 0 0 0 .254.68l.006.011c.034.068.07.134.108.198.068.114.135.228.213.335a1.698 1.698 0 0 0 .288.306c.06.062.125.12.194.173.05.04.102.075.16.101l.074.057c.695.523 1.727.685 2.578.592a3.994 3.994 0 0 0 1.63-.54c.068-.043.138-.082.209-.118.05-.024.102-.044.152-.067a1.77 1.77 0 0 0 .155-.087c.042-.027.086-.052.128-.08a.968.968 0 0 0 .074-.055c.051-.02.099-.049.148-.078.398-.242.78-.556 1.082-.91.01-.011.019-.02.03-.035l.08-.088c.055-.057.11-.111.16-.17.048-.056.093-.114.134-.174a7.065 7.065 0 0 0 .98-1.987c.004-.017.011-.033.016-.05a7.128 7.128 0 0 0 .113-.513c.032-.168.055-.337.064-.507.01-.146.013-.3.01-.458zM66.825 18.598a.546.546 0 0 0-.155-.13.31.31 0 0 0-.103-.037c-.025-.004-.052-.003-.077-.003-.05 0-.1.001-.15.012-.185.038-.323.18-.403.344-.077.158-.106.334-.161.5-.03.087-.068.172-.095.26l-.06.192-.006.016c-.021.059-.046.116-.067.175-.027.071-.05.144-.076.216a.128.128 0 0 0 .007-.02c-.054.156-.134.301-.208.449-.036.067-.077.13-.119.194-.104.154-.221.298-.335.447-.054.07-.105.142-.155.214-.05.072-.106.14-.159.209a2.66 2.66 0 0 0-.166.237c-.047.077-.092.154-.142.23-.05.073-.104.145-.164.212-.13.147-.273.285-.423.418l-.067.06c.002-.004.005-.006.008-.009l-.013.012-.041.037a6.377 6.377 0 0 1-.81.752c-.112.09-.228.173-.34.263-.116.092-.23.186-.37.282l-.02.015-.04.026c-.079.053-.16.102-.237.162-.083.066-.165.13-.264.2-.063.042-.132.076-.198.114-.079.045-.156.09-.237.13a3.23 3.23 0 0 1-.198.089c-.242.099-.472.227-.722.31-.27.09-.55.151-.828.208-.379.077-.757.145-1.138.205-.29.044-.58.122-.874.142-.314.021-.638.003-.953-.005a9.985 9.985 0 0 1-1.208-.082 3.71 3.71 0 0 1-.588-.13c-.193-.061-.37-.156-.562-.213a.795.795 0 0 1-.072-.024c-.019-.008-.036-.018-.054-.026-.122-.049-.297-.017-.363.105l-.013.027-.005.012a.39.39 0 0 0-.02.21.427.427 0 0 0 .142.25.18.18 0 0 0 .106.045.356.356 0 0 0 .045.034c.046.03.097.054.147.076l.046.02.106.056c.053.025.105.05.158.073a.92.92 0 0 0 .21.064l.029.006c.054.012.108.03.16.048l.02.008c.06.02.119.04.18.054.04.009.08.02.12.027.037.008.072.015.109.02.092.03.186.05.273.067.099.02.196.047.297.062.077.014.156.023.234.035.576.088 1.158.03 1.733-.04.58-.071 1.164-.117 1.739-.227.626-.118 1.22-.346 1.8-.606.101-.046.204-.09.303-.14.068-.036.137-.075.205-.11.15-.076.304-.142.451-.22a5.942 5.942 0 0 0 1.184-.76c.08-.066.156-.141.234-.213.075-.063.158-.117.236-.178.068-.052.136-.106.199-.164.057-.052.104-.11.157-.166.043-.047.09-.089.134-.134.04-.04.08-.079.115-.12.049-.054.092-.112.138-.168.098-.11.203-.213.302-.32.057-.061.106-.129.156-.195l.122-.158c.035-.045.069-.09.105-.134.026-.03.054-.06.079-.091l.04-.05c.065-.073.134-.14.201-.209.5-.506.81-1.136 1.131-1.757.086-.166.169-.332.24-.505.13-.317.256-.694.185-1.04a.57.57 0 0 0-.13-.242zM53.45 23.736c.061 0 .12-.02.174-.049.155-.085.278-.221.391-.354.14-.165.236-.359.346-.543.07-.118.146-.23.221-.345a4.759 4.759 0 0 0 .355-.634c.047-.099.092-.202.125-.307a.935.935 0 0 0 .051-.276.492.492 0 0 0-.04-.221.201.201 0 0 0-.083-.086.205.205 0 0 0-.145-.01.439.439 0 0 0-.177.11.975.975 0 0 0-.17.23 4.54 4.54 0 0 0-.154.283l-.181.361c-.04.08-.08.159-.121.235a9.185 9.185 0 0 0-.128.248c-.04.078-.085.153-.13.227-.044.071-.085.145-.133.215-.125.18-.262.336-.348.542-.055.132-.068.358.13.372h.02zM56.502 23.311a.37.37 0 0 0 .125.023l.034-.001a.347.347 0 0 0 .167-.066 1.13 1.13 0 0 0 .244-.25 6.75 6.75 0 0 0 .212-.295c.066-.098.137-.193.196-.294a3.08 3.08 0 0 0 .177-.348 6.49 6.49 0 0 0 .246-.726c.03-.123.057-.246.08-.37.01-.055.017-.11.023-.166.008-.063.019-.125.025-.188a4.658 4.658 0 0 0 .039-.7.566.566 0 0 0-.061-.246.765.765 0 0 0-.141-.216.48.48 0 0 0-.11-.101c-.073-.047-.163-.082-.249-.054a.212.212 0 0 0-.107.075.331.331 0 0 0-.043.075.311.311 0 0 0-.04.233c.01.038.03.08.065.102 0 .004.003.009.004.013a.627.627 0 0 0 .034.17c.004.088.003.177-.002.265v.011-.003a1.675 1.675 0 0 1-.082.389l-.004.013v-.004a2.79 2.79 0 0 1-.041.112c-.092.245-.2.484-.298.727-.05.12-.099.24-.152.36-.05.116-.099.233-.154.346-.021.041-.043.082-.066.122-.062.108-.13.212-.183.325a.948.948 0 0 0-.092.395c0 .056.009.11.035.16a.226.226 0 0 0 .12.112z"/><path d="M60.319 22.435h.005a.224.224 0 0 0 .108-.035.456.456 0 0 0 .078-.054c.054-.046.102-.098.145-.153.085-.106.158-.219.24-.327.085-.112.173-.222.26-.331.084-.107.171-.212.25-.323.157-.219.29-.454.408-.696.057-.116.11-.235.16-.354.053-.122.108-.242.156-.366.024-.06.048-.121.069-.183l.016-.047c.004-.013.01-.025.013-.038.002-.008.005-.017.009-.025l.03-.09a2.665 2.665 0 0 0 .105-.407c.018-.113.026-.227.027-.341a1.489 1.489 0 0 0-.044-.496c-.018-.069-.041-.136-.063-.204-.034-.111-.056-.226-.106-.331a.65.65 0 0 0-.057-.098.426.426 0 0 0-.021-.042c-.019-.034-.04-.074-.07-.1l-.01-.008a.107.107 0 0 0-.034-.032c-.005-.004-.007-.01-.013-.013a.166.166 0 0 0-.103-.028l-.042.001a.118.118 0 0 0-.043 0 .233.233 0 0 0-.177.134.334.334 0 0 0-.038.137.786.786 0 0 0-.03.166c-.006.087-.006.175-.006.264v.147c.003.057.008.112.012.169.005.091.005.18.007.27 0 .083 0 .165-.004.247v.01a1.577 1.577 0 0 1-.098.438c0-.001 0-.003.002-.005a5.156 5.156 0 0 1-.235.53l-.01.021-.007.012-.095.186c-.06.115-.119.232-.184.345-.065.118-.134.235-.196.356-.06.118-.123.235-.18.355-.059.119-.115.239-.17.36-.053.12-.113.24-.154.366a1.564 1.564 0 0 0-.07.366.352.352 0 0 0 .011.153c.022.063.083.096.148.098zM77.673 9.742a1.449 1.449 0 0 0-.087-.216c-.036-.077-.07-.156-.11-.231a.785.785 0 0 0-.188-.232c-.066-.057-.14-.104-.213-.153a2.268 2.268 0 0 0-.228-.143l-.018-.009.005.003a1.492 1.492 0 0 0-.257-.102c-.063-.018-.132-.026-.196-.034a1.631 1.631 0 0 0-.139-.01h-.15c-.05 0-.102-.003-.152 0a1.082 1.082 0 0 0-.183.028h-.004a.648.648 0 0 0-.07.012c-.018.004-.035.01-.053.012s-.034.007-.05.013l-.042.016h-.001c-.036.013-.073.024-.107.04a.492.492 0 0 0-.045.025l-.029.017-.04.021-.011.007c-.01.005-.021.01-.03.017l-.043.026-.04.03a.396.396 0 0 0-.059.057l-.04.037-.052.051c-.014.016-.028.032-.04.048a.84.84 0 0 0-.073.08 1.755 1.755 0 0 0-.203.36 1.435 1.435 0 0 0-.11.309c-.025.117-.038.24-.033.361.006.136.038.265.085.392.07.195.155.395.287.559.121.15.28.277.454.361.084.042.172.08.265.099.117.025.238.038.357.046.071.004.142.008.214.008l.068-.001c.048-.003.096-.003.144-.01l.14-.029c.11-.022.218-.047.32-.092a.998.998 0 0 0 .207-.123c.058-.043.115-.088.169-.137.215-.194.336-.474.382-.755.028-.169.036-.336.036-.506a.844.844 0 0 0-.035-.25z"/></g><path fill="#2f3236" d="M77.674 9.74a1.75 1.75 0 0 0-.066-.171l-.04-.065a.752.752 0 0 0-.046-.063c-.033-.037-.068-.071-.104-.106a1.474 1.474 0 0 0-.108-.095.68.68 0 0 0-.065-.042c-.02-.012-.043-.022-.066-.034l-.042-.021a1.308 1.308 0 0 0-.122-.06 1.067 1.067 0 0 0-.352-.06h-.028l-.025-.003h.005l-.033-.002h-.04c-.028 0-.057 0-.086.002a.77.77 0 0 0-.094.01l-.054.007-.069.01c-.02.004-.042.007-.063.014-.016.005-.03.013-.046.019l-.038.014-.046.019c-.021.007-.043.018-.064.027-.02.01-.043.021-.063.034a.405.405 0 0 0-.057.041l-.06.054.004-.002-.053.046c-.017.016-.034.032-.049.049-.029.034-.057.07-.083.108a1.68 1.68 0 0 1-.058.076.812.812 0 0 0-.055.085c-.016.03-.028.063-.04.095-.01.029-.024.058-.035.087-.011.025-.019.05-.027.075a2.033 2.033 0 0 1-.025.087c-.01.03-.018.06-.024.092l-.006.037a.255.255 0 0 0-.01.054v.095a.232.232 0 0 0-.002.06c0 .01.003.018.004.027l.008.072a.79.79 0 0 0 .01.08l.016.073c.01.053.032.1.05.152.007.018.012.036.02.053l.025.049c.02.031.04.062.062.092l.012.017.005.01.021.03-.002-.002.038.056.037.046c.017.02.034.04.054.058l.043.04c.02.02.039.036.057.056.017.017.036.033.054.049.019.016.04.029.06.042.017.01.032.017.05.025.013.007.027.015.042.02l.035.016.086.038c.024.01.047.017.071.025l.015.004a.624.624 0 0 0 .087.034.898.898 0 0 0 .23.037c.03.003.06.004.089.004h.047l.05.001H76.768c.03-.002.06-.01.09-.017h-.005a.24.24 0 0 0 .088-.026h.004l.004-.003a.926.926 0 0 0 .055-.013c.003 0 .007-.003.01-.004l.028-.007c.028-.017.054-.035.082-.055a2.71 2.71 0 0 0 .169-.137c.196-.177.332-.446.384-.758.023-.145.034-.3.035-.506a.843.843 0 0 0-.035-.252zm-2.107-.076-.003.005.004-.005zM75.534 10.914l-.003-.004.003.004z"/><path fill="#6e4e48" d="M99.378 8.32c0-.036 0-.073-.004-.11-.002-.024-.006-.047-.01-.071v.004l-.03-.14c-.006-.021-.01-.043-.018-.065a1.436 1.436 0 0 0-.07-.144c-.046-.078-.096-.156-.143-.234-.03-.049-.06-.099-.094-.145a5.667 5.667 0 0 0-.183-.236c-.03-.034-.057-.07-.084-.104-.047-.057-.093-.115-.144-.169l-.087-.09c-.044-.043-.088-.088-.133-.13a6.332 6.332 0 0 0-.137-.128 3.263 3.263 0 0 0-.141-.128c-.05-.04-.097-.084-.147-.124l-.06-.046a30.31 30.31 0 0 1-.056-.057l-.121-.132c-.045-.048-.09-.098-.137-.146-.045-.043-.09-.087-.137-.128l-.134-.112-.014-.013.003.003a.193.193 0 0 0-.025-.021c-.006-.006-.012-.012-.019-.016l-.016-.015h.002c-.077-.066-.157-.13-.234-.198-.046-.04-.09-.081-.14-.12a4.176 4.176 0 0 1-.143-.116c-.041-.035-.08-.072-.119-.108a2.701 2.701 0 0 0-.134-.11c-.045-.036-.091-.069-.138-.103-.048-.037-.095-.075-.142-.114-.091-.075-.18-.153-.272-.226l-.138-.11a5.327 5.327 0 0 1-.135-.112l-.12-.108-.122-.106a8.804 8.804 0 0 0-.13-.108l-.14-.116.003.003c-.036-.033-.073-.067-.112-.098l-.114-.09c-.075-.056-.156-.106-.234-.159-.029-.02-.058-.04-.085-.062l-.095-.076a2.245 2.245 0 0 0-.18-.13c-.062-.039-.124-.075-.186-.113-.058-.035-.116-.074-.172-.11l.004.002a2.17 2.17 0 0 1-.112-.082c-.032-.023-.064-.049-.095-.07-.06-.043-.12-.083-.178-.126-.028-.021-.054-.042-.083-.06-.033-.023-.069-.046-.102-.07l.004.003c-.029-.018-.057-.04-.084-.058l-.093-.062-.004-.002-.002-.002c-.028-.02-.057-.038-.083-.059-.021-.017-.044-.036-.065-.051a.365.365 0 0 0-.06-.04.215.215 0 0 0-.07-.021H92.882c-.018-.004-.037-.003-.055-.003-.034 0-.071-.002-.104.01-.035.011-.064.034-.097.05h.004s-.013.004-.02.008a.114.114 0 0 0-.02.013c-.014.01-.026.025-.037.038-.039.046-.065.1-.093.154a1.089 1.089 0 0 0-.077.211l-.03.107c-.011.04-.023.08-.038.119v-.004c-.022.068-.047.135-.067.207l-.029.108a3.555 3.555 0 0 0-.034.114c-.01.035-.019.069-.03.102l-.032.105c-.02.068-.041.135-.057.202-.014.06-.029.12-.046.18l-.048.17-.04.18-.044.182c-.013.06-.028.121-.04.182a2.48 2.48 0 0 0-.022.095l-.005.022-.003.011c0 .005-.002.012-.004.017l-.008.041v-.004c-.02.095-.044.19-.068.284-.015.059-.03.117-.038.176-.01.057-.016.115-.025.172-.008.056-.019.112-.028.167-.01.054-.017.108-.027.164l-.011.076a2.705 2.705 0 0 0-.036.138c-.017.069-.033.139-.051.206a3.467 3.467 0 0 0-.05.2l-.045.21a10.377 10.377 0 0 0-.05.204c-.007.03-.014.06-.018.09l-.014.098c-.008.056-.02.113-.032.17-.01.054-.023.108-.037.165-.013.052-.022.106-.031.16l-.016.114-.123-.024h.006l-.114-.025-.108-.024c-.079-.018-.156-.042-.233-.06-.073-.019-.147-.033-.22-.049a6.025 6.025 0 0 0-.211-.044 8.424 8.424 0 0 1-.178-.038c-.05-.01-.098-.018-.147-.029h.004a5.455 5.455 0 0 1-.2-.047 8.283 8.283 0 0 0-.193-.046l-.199-.044c-.062-.012-.125-.021-.186-.033a2.312 2.312 0 0 1-.137-.033l-.07-.018-.07-.023c-.05-.016-.1-.033-.15-.047l-.134-.04c-.052-.014-.103-.03-.155-.046a1.347 1.347 0 0 0-.143-.037c-.044-.008-.087-.013-.13-.02l-.1-.02h.005c-.055-.01-.109-.024-.166-.036a2.067 2.067 0 0 1-.096-.021 2.64 2.64 0 0 0-.099-.021c-.08-.016-.16-.033-.242-.044h-.01a1.014 1.014 0 0 0-.183-.033c-.024-.003-.046-.004-.068-.005a1.577 1.577 0 0 1-.111-.012c-.006 0-.01 0-.013-.003h-.007c-.029-.005-.058-.013-.088-.013h-.074a.1.1 0 0 0-.052.013l-.02.008c-.026.01-.053.025-.068.05 0 .003-.003.006-.003.007a.093.093 0 0 0-.025.03c-.013.02-.022.044-.033.065a.385.385 0 0 0-.026.068c-.008.03-.014.061-.021.091V7.14a2.564 2.564 0 0 1-.06.242.958.958 0 0 0-.034.16c-.005.05-.008.1-.01.15-.007.04-.01.081-.016.122-.01.087-.018.176-.033.263a6.348 6.348 0 0 1-.047.274l-.032.15v-.005l-.034.183a2.685 2.685 0 0 0-.043.388c-.004.06-.004.121-.007.182v-.006c-.003.041-.007.08-.012.12l-.054.39c-.018.125-.032.248-.047.374-.013.124-.026.248-.046.37l-.03.193c-.01.062-.017.125-.028.188l-.025.164c-.008.06-.013.117-.018.177l-.016.156-.016.17c-.005.057-.013.114-.02.172l-.023.194c-.008.062-.018.125-.023.187l-.008.142c-.002.048-.008.095-.013.144l-.003.012c-.03.149-.061.297-.088.447a2.113 2.113 0 0 0-.028.204c-.005.065-.007.128-.02.193-.022.13-.044.26-.063.393a8.26 8.26 0 0 0-.048.396l-.015.17c-.005.063-.014.126-.021.19-.007.065-.01.132-.016.198-.005.066-.01.13-.02.197l-.03.201c-.008.065-.013.13-.018.194-.006.066-.01.132-.019.198-.008.065-.02.128-.031.192-.011.068-.022.135-.026.202-.003.066-.005.13-.01.197l-.012.09-.016.088-.029.187a48.418 48.418 0 0 0-.055.393 2.446 2.446 0 0 0-.019.262c0 .013 0 .025-.002.038v.015c-.008.103-.02.206-.03.308a3.406 3.406 0 0 1-.022.198l-.03.186-.032.191c-.009.062-.015.124-.02.186-.014.135-.027.27-.046.402a3.617 3.617 0 0 0-.034.354v.014c-.009.124-.03.248-.049.37a4.353 4.353 0 0 0-.038.378v-.004l-.018.201-.012.056c-.008.034-.015.068-.021.103v-.004l-.019.099a.997.997 0 0 0-.017.134c-.003.037-.008.073-.012.108-.012.103-.023.206-.04.307l-.02.15c-.004.035-.008.07-.008.108v.443l.001.084c.003.03.007.062.013.092a.234.234 0 0 0 .028.069c.013.02.028.04.04.06 0 0 0-.002-.002-.002.013.02.025.04.041.06a.23.23 0 0 0 .067.05c.028.012.058.02.087.03l.054.018.006.007c.005.006.01.013.017.017a.06.06 0 0 0 .03.01c.019.003.04.004.06.004l.105.038a2.37 2.37 0 0 0 .444.107c.041.006.082.01.123.012h.051c.08.019.161.036.243.049.121.021.244.036.366.05l.181.025c.058.01.116.021.173.033h-.004l.035.008c.134.029.265.066.399.096l.396.089c.128.026.254.055.381.084.135.03.27.057.405.083h-.004c.202.04.402.09.604.134.096.022.193.043.29.06.095.017.189.033.282.051h-.004l.264.056.248.05h-.005c.073.016.149.03.222.047.07.015.136.032.204.048.067.015.133.033.2.048.07.019.138.036.21.053.124.03.248.056.373.085.06.013.117.027.175.043.067.017.135.036.203.051l.214.047h.006l.141.027.22.05c.064.016.129.033.193.044.067.012.137.013.206.018.078.007.155.018.232.032h-.004c.071.016.14.033.21.053l.101.027c.029.008.058.014.087.019.07.014.141.025.212.036.074.011.147.023.22.036l.188.037c.07.014.14.025.212.037l.183.028c.065.01.13.017.195.028l.188.027c.07.01.14.016.21.023a9.427 9.427 0 0 0 .362.033c.09.006.178.006.267.006h.128c.048 0 .095-.002.143-.006.049-.004.099-.008.147-.017.045-.008.089-.018.134-.024.052-.008.105-.016.157-.03.054-.016.106-.036.158-.059s.103-.047.146-.081a.187.187 0 0 0 .05-.057l.013-.028.01-.01a.289.289 0 0 0 .04-.052l.016-.044c.01-.035.016-.069.024-.103.004-.021.01-.041.016-.061l.013-.057c.01-.043.016-.085.025-.129.005-.025.013-.05.017-.076l.013-.082c.01-.042.024-.084.035-.127.013-.048.025-.097.04-.145.014-.051.033-.1.048-.151a9.528 9.528 0 0 1 .069-.231l.026-.082.04-.158.04-.162c.01-.05.017-.1.028-.15v.005c.01-.046.021-.092.033-.137l.03-.123c.023-.09.045-.182.065-.273.01-.053.018-.107.029-.16.01-.055.02-.11.032-.164v.004c.01-.052.023-.104.034-.156.012-.054.021-.11.033-.163v.004l.029-.135c.01-.043.016-.087.024-.13.014-.082.026-.165.043-.248v.004l.017-.08.019-.086.014-.087.016-.098.016-.082c.01-.055.017-.11.027-.166l.011-.058.012-.076.029-.195c.008-.062.017-.126.028-.188l.025-.183.014-.096.007-.027a.887.887 0 0 0 .009-.062l.005-.026V18.51l.008-.083c.003-.021.004-.042.008-.062.008-.034.02-.069.025-.104.008-.058.012-.118.016-.177.004-.057.01-.113.016-.169.006-.073.008-.146.013-.22v.004c.003-.037.008-.074.013-.112.007-.047.013-.095.024-.142v.005a1.66 1.66 0 0 0 .021-.11l.022-.129c.014-.076.023-.155.039-.232v.004a.49.49 0 0 1 .01-.043c.013-.06.019-.12.028-.18l.014-.09c.004-.03.008-.059.01-.089.007-.063.017-.127.029-.188.011-.065.025-.13.036-.194.014-.066.024-.133.035-.2.01-.067.018-.133.029-.2a1.983 1.983 0 0 0 .024-.187c.007-.065.014-.13.027-.195.007-.032.015-.063.021-.095v.004c.013-.06.023-.123.032-.183l.025-.177.032-.177.03-.172v.003c.014-.072.03-.143.043-.216v.004c.01-.043.019-.087.03-.13.007-.037.017-.074.025-.111.017-.087.029-.174.046-.261.014-.082.031-.162.046-.243.014-.08.025-.16.038-.241l.028-.19.016-.096.017-.094c.02-.118.037-.238.056-.358.011-.057.019-.114.028-.17.01-.058.017-.118.026-.177.007-.049.015-.096.024-.144.007-.04.015-.082.017-.122a.05.05 0 0 0-.008-.028v-.003c.016-.071.027-.142.036-.215l.013-.09.008-.059v-.035a.06.06 0 0 0-.006-.03l-.003-.006c0-.022.003-.043.003-.066l.02-.122c.012-.069.028-.138.039-.207.008-.054.017-.11.028-.164.01-.053.015-.105.023-.16.01-.06.02-.12.028-.18.008-.055.014-.11.021-.166l.02-.172c.008-.063.016-.127.022-.19.006-.063.01-.126.017-.188.008-.063.018-.125.03-.187l.035-.155c.013-.059.024-.12.034-.179l.023-.14.02-.125.018-.12.013-.088a1.645 1.645 0 0 0 .02-.191v-.482z"/><path fill="#fff" d="M98.67 7.882a.265.265 0 0 0-.016-.04l-.016-.035c-.008-.014-.015-.029-.025-.042a.309.309 0 0 0-.02-.021.662.662 0 0 0-.132-.16l-.024-.02a.048.048 0 0 0-.018-.013.443.443 0 0 0-.033-.038c-.023-.025-.045-.05-.069-.074l-.106-.108a5.35 5.35 0 0 0-.349-.319l-.12-.108a2.755 2.755 0 0 0-.256-.206 1.52 1.52 0 0 1-.114-.09c-.038-.032-.074-.068-.112-.1a2.519 2.519 0 0 0-.116-.09c-.034-.025-.07-.05-.103-.077l-.062-.051a4.525 4.525 0 0 0-.173-.143 3.247 3.247 0 0 1-.196-.16c-.036-.032-.07-.065-.104-.098a1.76 1.76 0 0 0-.103-.095l-.074-.06-.003-.002c-.005-.005-.01-.01-.015-.013a.266.266 0 0 0-.022-.019c-.014-.01-.027-.022-.043-.033a1.532 1.532 0 0 0-.094-.067l-.012-.008a.985.985 0 0 0-.109-.101l-.057-.045c-.02-.016-.04-.033-.062-.048a4.891 4.891 0 0 1-.132-.097c-.044-.034-.09-.067-.133-.104h.003c-.022-.02-.043-.04-.067-.058a.652.652 0 0 0-.077-.052c-.04-.023-.081-.047-.121-.074l.003.003-.044-.032-.045-.04c-.023-.018-.047-.036-.072-.052h-.001c-.022-.016-.044-.029-.065-.045l.003.003-.118-.086c-.051-.038-.103-.079-.153-.118-.05-.041-.101-.08-.151-.123-.04-.032-.078-.066-.12-.095l-.069-.049-.067-.047c-.028-.02-.056-.04-.082-.062-.04-.034-.082-.067-.121-.103l.004.003c-.045-.04-.089-.08-.136-.115-.053-.038-.107-.077-.157-.12l.003.003c-.027-.023-.052-.048-.077-.072l-.074-.067a1.317 1.317 0 0 0-.079-.068l-.09-.074c-.025-.02-.047-.041-.07-.06-.03-.025-.061-.051-.097-.07l-.049-.023a.558.558 0 0 0-.125-.071c-.04-.016-.082-.033-.123-.045a.608.608 0 0 0-.067-.013c-.026-.003-.053-.002-.079 0s-.051.009-.075.022c-.022.013-.042.029-.065.043-.01.007-.022.012-.031.02a.37.37 0 0 0-.024.023c-.019.02-.033.045-.048.068a.664.664 0 0 0-.056.139 1.964 1.964 0 0 0-.057.19c-.008.05-.01.1-.018.149-.004.02-.01.04-.016.06l-.023.08-.029.109c-.005.02-.009.043-.015.064a.998.998 0 0 0-.019.061l-.018.07c-.003.014-.008.029-.01.043-.005.015-.008.03-.01.045l-.003.01c-.008.023-.016.044-.022.067a.936.936 0 0 0-.03.12c-.006.022-.01.046-.014.068-.002.019-.004.037-.008.056l-.011.047-.016.065c-.007.025-.012.051-.017.077l-.008.045-.02.071a2.356 2.356 0 0 0-.037.138l-.028.122-.026.122c-.02.088-.042.176-.057.266-.008.054-.014.107-.025.16v-.003c-.006.03-.014.062-.022.092l-.028.115-.012.052v.004a.189.189 0 0 0-.005.027c-.004.024-.008.046-.01.07l-.011.07a28.843 28.843 0 0 0-.029.16v-.006l-.016.078-.022.118-.033.182a.862.862 0 0 0-.019.166c0 .05 0 .1-.002.148l-.004.067V7.33a1.276 1.276 0 0 1-.01.102c-.004.018-.004.035-.005.054v.01-.001.002a.285.285 0 0 0 .004.089v.004c.004.026.01.052.018.079a.15.15 0 0 0 .03.055.332.332 0 0 0 .05.046c.02.017.04.035.064.047a.734.734 0 0 1 .086.044c.028.014.054.03.084.04.027.01.052.018.08.025l.122.028.06.014c.022.005.042.013.06.019.06.02.12.037.18.054.05.013.102.027.152.042l.073.022.081.023c.061.017.122.034.185.046a2.712 2.712 0 0 1 .281.06c.05.014.099.032.149.044.04.01.083.017.124.028l.138.035.166.037c.053.012.106.023.16.03.057.008.112.018.169.024l.092.012c.024.005.049.01.073.013.031.006.061.01.094.015l.028.005.016.003.095.025c.107.022.216.034.323.056h-.004c.062.014.125.03.188.039.057.008.115.013.172.02.058.009.115.022.173.032.056.011.113.018.171.023.026.002.051.005.078.01.034.004.068.01.101.015.069.01.137.014.206.021l.146.013c.05.005.098.012.148.016.1.008.202.003.302.01h-.005l.174.01h.208l.062-.007c.044-.005.086-.012.128-.016h-.001c.068-.004.137-.006.204-.012a.574.574 0 0 0 .116-.018c.038-.01.076-.025.115-.038h-.004c.013-.004.026-.01.04-.013h-.005c.039-.012.077-.023.115-.039l.09-.04.093-.045a.582.582 0 0 0 .148-.098l.062-.057a.687.687 0 0 1 .036-.029c.017-.013.034-.026.048-.042a.28.28 0 0 0 .048-.064c.012-.024.02-.05.03-.074v.004c.012-.033.03-.065.041-.1a.25.25 0 0 0 .013-.076V7.94c0-.02 0-.043-.005-.063z"/><path fill="#6e4e48" d="m98.283 8.58.008.002c-.021-.012-.041-.025-.06-.038h-.002l-.01-.007h.002l-.175-.117c-.07-.048-.131-.102-.197-.153l-.117-.089-.106-.07.01.006c-.074-.05-.146-.106-.22-.158-.08-.057-.158-.116-.237-.174-.075-.056-.15-.11-.227-.164-.073-.05-.149-.097-.224-.148l.006.004a27.162 27.162 0 0 1-.246-.168c-.066-.048-.135-.091-.203-.136-.201-.136-.386-.293-.581-.44a5.653 5.653 0 0 0-.294-.206c-.092-.06-.186-.12-.277-.182-.08-.057-.157-.12-.235-.182-.083-.065-.171-.123-.253-.187a8.1 8.1 0 0 1-.287-.238c-.093-.08-.192-.153-.284-.232-.092-.079-.182-.158-.277-.233a2.194 2.194 0 0 0-.142-.104 1.507 1.507 0 0 1-.137-.106l.002.003-.006-.005-.004-.003h.003l-.014-.01.01.009c-.074-.065-.148-.13-.226-.193-.071-.057-.145-.11-.215-.17l.004.003c-.09-.08-.176-.168-.271-.246-.05-.04-.1-.077-.15-.116-.024-.018-.048-.04-.073-.058-.004-.004-.01-.006-.013-.009a.103.103 0 0 0-.098-.07.104.104 0 0 0-.102.098c0 .033.002.064.024.09.027.031.065.054.095.079.077.06.156.118.23.183.108.096.21.199.324.289.058.044.117.088.174.135l.148.127h-.002l.004.003.006.004h-.003l.006.004h-.002l.006.004.004.002c.033.03.068.058.105.085l.1.07c.076.053.146.114.217.173.064.053.126.107.188.16.067.057.14.108.207.166.092.08.182.158.278.233.048.039.097.077.149.113.052.036.104.073.155.113.048.037.094.076.141.113.05.037.098.073.15.106.097.063.196.126.293.191.16.11.313.227.464.345.077.06.152.12.23.177.086.062.174.117.262.177l-.01-.007c.084.057.168.118.253.176.079.054.158.105.238.156h.002l.008.007h-.003c.062.04.123.086.185.13.07.05.14.105.21.155l.218.158c.058.042.118.082.177.123h-.001c.081.054.157.117.233.179.066.054.138.098.21.145l-.011-.007c.058.039.113.085.177.115a.095.095 0 0 0 .038.008.11.11 0 0 0 .096-.063.103.103 0 0 0-.054-.133zM98.635 8.357h-.003l.01.005-.109-.081c-.052-.04-.101-.082-.154-.12-.138-.102-.287-.19-.43-.287l.01.007-.196-.136-.199-.133.004.003a11.71 11.71 0 0 1-.513-.37c-.11-.084-.221-.166-.33-.25-.055-.043-.111-.086-.165-.13l-.132-.109c-.1-.08-.205-.153-.305-.232a5.852 5.852 0 0 1-.14-.113c-.046-.038-.095-.074-.142-.11-.11-.08-.217-.162-.328-.24-.053-.038-.106-.073-.159-.112-.05-.035-.098-.073-.148-.11-.102-.074-.2-.153-.297-.231s-.205-.145-.298-.225c-.086-.077-.169-.157-.259-.229-.094-.075-.19-.147-.283-.226l.003.002-.008-.006a2.129 2.129 0 0 0-.115-.1l-.11-.091-.122-.102c-.032-.025-.065-.05-.096-.076-.05-.045-.094-.095-.143-.14a2.08 2.08 0 0 0-.178-.144c-.059-.043-.117-.088-.175-.133-.046-.034-.091-.066-.134-.103-.04-.036-.077-.072-.115-.11-.04-.038-.082-.075-.123-.111l-.07-.065c-.013-.012-.025-.025-.04-.034a.13.13 0 0 0-.086-.025.101.101 0 0 0-.021.2l.072.067.094.085c.063.059.122.122.19.176.067.054.137.103.204.156.074.058.152.11.223.173.043.04.083.081.124.122.04.041.087.075.132.112.054.042.104.087.157.13.044.038.088.073.133.11.072.065.145.13.223.187.08.061.16.124.237.192.06.052.117.11.18.162.069.058.146.11.22.163.067.05.13.103.194.155.073.058.148.112.222.166.1.075.204.145.306.217.107.077.212.157.318.235.097.072.187.153.284.225.1.077.203.15.3.231.207.173.427.328.64.495.103.081.213.156.32.233.106.075.214.146.323.219-.002 0-.003-.003-.006-.003.095.065.189.132.285.195.095.064.193.124.288.189h-.002c.03.018.058.04.086.06l.097.077.088.065c.02.015.042.034.064.048a.1.1 0 0 0 .05.015c.036 0 .071-.02.09-.052a.101.101 0 0 0-.037-.138zM98.997 8.178l-.006-.003-.01-.005-.123-.091c-.043-.03-.086-.058-.131-.087a1.476 1.476 0 0 1-.113-.089l-.008-.006.004.002-.008-.006-.126-.115c-.046-.043-.092-.088-.14-.13-.094-.078-.198-.144-.301-.213l.01.007a3.138 3.138 0 0 1-.149-.11 7.327 7.327 0 0 0-.288-.213c-.106-.074-.207-.154-.312-.23l-.145-.102c-.05-.037-.097-.077-.145-.115a5.429 5.429 0 0 0-.296-.223c-.052-.037-.104-.074-.155-.115-.044-.035-.09-.072-.135-.106l-.294-.22a3.53 3.53 0 0 1-.136-.113l-.144-.117a8.578 8.578 0 0 1-.293-.241c-.083-.076-.16-.153-.245-.227-.038-.033-.08-.065-.12-.096-.04-.032-.079-.066-.117-.1l.005.005c-.082-.073-.163-.147-.248-.218-.075-.062-.154-.117-.23-.18-.039-.03-.078-.064-.12-.095l-.12-.093a4.258 4.258 0 0 1-.255-.204c-.06-.054-.12-.11-.184-.16a2.841 2.841 0 0 0-.194-.138 1.59 1.59 0 0 1-.128-.102l-.023-.02.01.01a8.354 8.354 0 0 0-.228-.202l-.116-.099c-.039-.03-.078-.058-.115-.09a5.761 5.761 0 0 0-.226-.177c-.047-.036-.096-.08-.158-.08a.102.102 0 0 0-.101.102c0 .049.035.091.083.1h.001c.102.071.194.152.29.228.052.041.104.08.154.123s.103.084.153.13l-.009-.01c.045.04.088.082.133.121h.002l.006.008h-.001c.066.055.134.11.208.158h-.002c.07.048.14.1.205.155.077.068.152.138.234.201.08.064.163.126.245.188.081.062.158.127.238.188.073.054.141.11.209.17h-.003c.07.06.139.123.208.183.065.056.134.106.197.161.09.08.175.168.267.247.09.076.184.151.277.225l.141.116c.044.039.087.075.134.11.098.074.2.146.298.223.044.035.09.07.135.108.05.04.102.076.155.112.1.07.197.145.292.221.05.04.098.08.148.118l.148.105c.103.074.203.154.307.226.097.068.194.137.287.21.09.072.184.134.277.196h-.001c.064.042.126.09.186.142.04.036.076.074.116.11l.118.106-.002-.002c.038.033.076.066.117.095.04.026.08.051.119.079h-.001c.032.02.064.044.096.07.035.027.072.058.114.073a.104.104 0 0 0 .04.007c.04 0 .078-.022.095-.062.021-.05-.003-.115-.054-.133z"/><path fill="#fff" d="M98.044 9.087a.172.172 0 0 0-.191.145c-.005.039-.007.078-.013.116-.023.102-.053.202-.069.305-.017.104-.027.21-.042.315-.016.11-.036.218-.043.327a2.881 2.881 0 0 1-.037.32l.005-.022c-.028.128-.057.253-.071.382-.014.116-.019.232-.033.348-.03.242-.053.484-.086.726-.022.168-.038.339-.066.506-.028.171-.05.345-.072.518-.023.173-.05.344-.078.517-.028.17-.052.34-.085.509 0-.005.003-.01.004-.015-.025.119-.054.236-.076.356-.021.112-.038.226-.055.338-.033.235-.065.468-.111.7l.005-.022c-.051.242-.108.483-.141.729-.03.234-.049.472-.088.705-.036.168-.077.332-.112.5-.036.163-.082.325-.12.489-.039.177-.058.355-.085.533-.026.176-.053.354-.072.532-.039.352-.098.7-.166 1.047v-.004c-.006.03-.011.058-.018.086v-.005c-.042.21-.073.424-.102.638-.025.178-.05.356-.077.534-.025.168-.042.339-.068.507-.026.172-.052.343-.073.515-.02.166-.036.334-.066.5l-.004.018a.201.201 0 0 0 .007.114c.02.048.062.086.112.1a.187.187 0 0 0 .141-.024c.068-.033.101-.12.083-.193.033-.189.049-.38.072-.57.021-.171.052-.342.076-.514.023-.166.042-.333.067-.5.051-.352.092-.705.162-1.054a.098.098 0 0 1-.005.02l.02-.102-.005.022c.072-.346.132-.697.17-1.05.02-.182.047-.364.074-.548.025-.168.047-.337.078-.504l.01-.039c.018-.084.042-.167.063-.25.022-.087.04-.174.06-.263.036-.172.083-.345.114-.52.03-.172.043-.346.063-.519.02-.168.046-.334.08-.5v.002c.05-.243.105-.484.14-.73.032-.227.06-.454.103-.68.03-.14.063-.276.088-.415.024-.134.043-.269.065-.403.021-.13.043-.261.062-.392l.053-.41c.023-.173.055-.343.075-.515.02-.174.045-.348.064-.524.019-.163.039-.327.056-.492.018-.166.026-.332.058-.495.022-.106.046-.21.06-.317.01-.093.011-.187.024-.28.013-.1.03-.198.044-.297.012-.09.022-.18.037-.268.014-.07.033-.138.05-.208.014-.06.018-.12.026-.182a.17.17 0 0 0-.145-.191z"/></g></svg>